  0
SECTION
  2
HEADER
  9
$ACADVER
  1
AC1015
  9
$HANDSEED
  5
FFFF
  0
ENDSEC
  0
SECTION
  2
TABLES
  0
TABLE
  2
VPORT
  5
8
100
AcDbSymbolTable
 70
1
  0
VPORT
  5
30
100
AcDbSymbolTableRecord
100
AcDbViewportTableRecord
  2
*Active
 70
0
 10
0.0
 20
0.0
 11
1.0
 21
1.0
 12
286.30555555555549
 22
148.5
 13
0.0
 23
0.0
 14
10.0
 24
10.0
 15
10.0
 25
10.0
 16
0.0
 26
0.0
 36
1.0
 17
0.0
 27
0.0
 37
0.0
 40
297.0
 41
1.92798353909465
 42
50.0
 43
0.0
 44
0.0
 50
0.0
 51
0.0
 71
0
 72
100
 73
1
 74
3
 75
1
 76
1
 77
0
 78
0
281
0
 65
1
110
0.0
120
0.0
130
0.0
111
1.0
121
0.0
131
0.0
112
0.0
122
1.0
132
0.0
 79
0
146
0.0
  0
ENDTAB
  0
TABLE
  2
LTYPE
  5
5
100
AcDbSymbolTable
 70
3
  0
LTYPE
  5
14
100
AcDbSymbolTableRecord
100
AcDbLinetypeTableRecord
  2
BYBLOCK
 70
0
  3

 72
65
 73
0
 40
0.0
  0
LTYPE
  5
15
100
AcDbSymbolTableRecord
100
AcDbLinetypeTableRecord
  2
BYLAYER
 70
0
  3

 72
65
 73
0
 40
0.0
  0
LTYPE
  5
16
100
AcDbSymbolTableRecord
100
AcDbLinetypeTableRecord
  2
CONTINUOUS
 70
0
  3
Solid line
 72
65
 73
0
 40
0.0
  0
ENDTAB
  0
TABLE
  2
LAYER
  5
2
100
AcDbSymbolTable
 70
3
  0
LAYER
  5
10
100
AcDbSymbolTableRecord
100
AcDbLayerTableRecord
  2
0
 70
0
 62
250
  6
CONTINUOUS
370
100
390
F
  0
LAYER
  5
31
100
AcDbSymbolTableRecord
100
AcDbLayerTableRecord
  2
layer0
 70
0
 62
1
  6
CONTINUOUS
370
100
390
F
  0
LAYER
  5
32
100
AcDbSymbolTableRecord
100
AcDbLayerTableRecord
  2
layer1
 70
0
 62
255
  6
CONTINUOUS
370
100
390
F
  0
ENDTAB
  0
TABLE
  2
STYLE
  5
3
100
AcDbSymbolTable
 70
1
  0
STYLE
  5
33
100
AcDbSymbolTableRecord
100
AcDbTextStyleTableRecord
  2
standard
 70
0
 40
2.5
 41
1.0
 50
0.0
 71
0
 42
2.5
  3

  4

1001
ACAD
1000
txt
1071
0
  0
ENDTAB
  0
TABLE
  2
VIEW
  5
6
100
AcDbSymbolTable
 70
0
  0
ENDTAB
  0
TABLE
  2
UCS
  5
7
100
AcDbSymbolTable
 70
0
  0
ENDTAB
  0
TABLE
  2
APPID
  5
9
100
AcDbSymbolTable
 70
1
  0
APPID
  5
12
100
AcDbSymbolTableRecord
100
AcDbRegAppTableRecord
  2
ACAD
 70
0
  0
ENDTAB
  0
TABLE
  2
DIMSTYLE
  5
A
100
AcDbSymbolTable
 70
1
100
AcDbDimStyleTable
 71
0
  0
DIMSTYLE
105
27
100
AcDbSymbolTableRecord
100
AcDbDimStyleTableRecord
  2
Standard
 41
1.0
 42
1.0
 43
3.75
 44
1.0
 70
0
 73
0
 74
0
 77
1
 78
8
140
1.0
141
2.5
143
0.03937007874016
147
1.0
171
3
172
1
271
2
272
2
274
3
278
44
283
0
284
8
340
20000000
  0
ENDTAB
  0
TABLE
  2
BLOCK_RECORD
  5
1
100
AcDbSymbolTable
 70
1
  0
BLOCK_RECORD
  5
1F
100
AcDbSymbolTableRecord
100
AcDbBlockTableRecord
  2
*Model_Space
340
22
  0
BLOCK_RECORD
  5
1B
100
AcDbSymbolTableRecord
100
AcDbBlockTableRecord
  2
*Paper_Space
340
1E
  0
BLOCK_RECORD
  5
23
100
AcDbSymbolTableRecord
100
AcDbBlockTableRecord
  2
*Paper_Space0
340
26
  0
ENDTAB
  0
ENDSEC
  0
SECTION
  2
BLOCKS
  0
BLOCK
  5
20
100
AcDbEntity
  8
0
100
AcDbBlockBegin
  2
*Model_Space
 70
0
 10
0.0
 20
0.0
 30
0.0
  3
*Model_Space
  1

  0
ENDBLK
  5
21
100
AcDbEntity
  8
0
100
AcDbBlockEnd
  0
BLOCK
  5
1C
100
AcDbEntity
 67
1
  8
0
100
AcDbBlockBegin
  2
*Paper_Space
 70
0
 10
0.0
 20
0.0
 30
0.0
  3
*Paper_Space
  1

  0
ENDBLK
  5
1D
100
AcDbEntity
 67
1
  8
0
100
AcDbBlockEnd
  0
BLOCK
  5
24
100
AcDbEntity
  8
0
100
AcDbBlockBegin
  2
*Paper_Space0
 70
0
 10
0.0
 20
0.0
 30
0.0
  3
*Paper_Space0
  1

  0
ENDBLK
  5
25
100
AcDbEntity
  8
0
100
AcDbBlockEnd
  0
ENDSEC
  0
SECTION
  2
ENTITIES
  0
SPLINE
  5
34
100
AcDbEntity
  8
layer0
 62
256
370
-1
 48
1.0
  6
BYLAYER
100
AcDbSpline
 70
8
 71
3
 72
292
 73
288
 74
0
 40
0.0
 40
0.0
 40
0.0
 40
0.0
 40
0.0138888889923692
 40
0.0138888889923692
 40
0.0138888889923692
 40
0.0138888889923692
 40
0.0277777779847384
 40
0.0277777779847384
 40
0.0277777779847384
 40
0.0277777779847384
 40
0.0416666669771075
 40
0.0416666669771075
 40
0.0416666669771075
 40
0.0416666669771075
 40
0.0555555559694767
 40
0.0555555559694767
 40
0.0555555559694767
 40
0.0555555559694767
 40
0.0694444449618459
 40
0.0694444449618459
 40
0.0694444449618459
 40
0.0694444449618459
 40
0.0833333339542151
 40
0.0833333339542151
 40
0.0833333339542151
 40
0.0833333339542151
 40
0.0972222229465842
 40
0.0972222229465842
 40
0.0972222229465842
 40
0.0972222229465842
 40
0.1111111119389534
 40
0.1111111119389534
 40
0.1111111119389534
 40
0.1111111119389534
 40
0.1250000009313226
 40
0.1250000009313226
 40
0.1250000009313226
 40
0.1250000009313226
 40
0.1388888899236918
 40
0.1388888899236918
 40
0.1388888899236918
 40
0.1388888899236918
 40
0.1527777789160609
 40
0.1527777789160609
 40
0.1527777789160609
 40
0.1527777789160609
 40
0.1666666679084301
 40
0.1666666679084301
 40
0.1666666679084301
 40
0.1666666679084301
 40
0.1805555569007993
 40
0.1805555569007993
 40
0.1805555569007993
 40
0.1805555569007993
 40
0.1944444458931685
 40
0.1944444458931685
 40
0.1944444458931685
 40
0.1944444458931685
 40
0.2083333348855376
 40
0.2083333348855376
 40
0.2083333348855376
 40
0.2083333348855376
 40
0.2222222238779068
 40
0.2222222238779068
 40
0.2222222238779068
 40
0.2222222238779068
 40
0.236111112870276
 40
0.236111112870276
 40
0.236111112870276
 40
0.236111112870276
 40
0.2500000018626452
 40
0.2500000018626452
 40
0.2500000018626452
 40
0.2500000018626452
 40
0.2638888908550143
 40
0.2638888908550143
 40
0.2638888908550143
 40
0.2638888908550143
 40
0.2777777798473835
 40
0.2777777798473835
 40
0.2777777798473835
 40
0.2777777798473835
 40
0.2916666688397527
 40
0.2916666688397527
 40
0.2916666688397527
 40
0.2916666688397527
 40
0.3055555578321219
 40
0.3055555578321219
 40
0.3055555578321219
 40
0.3055555578321219
 40
0.319444446824491
 40
0.319444446824491
 40
0.319444446824491
 40
0.319444446824491
 40
0.3333333358168602
 40
0.3333333358168602
 40
0.3333333358168602
 40
0.3333333358168602
 40
0.3472222248092294
 40
0.3472222248092294
 40
0.3472222248092294
 40
0.3472222248092294
 40
0.3611111138015986
 40
0.3611111138015986
 40
0.3611111138015986
 40
0.3611111138015986
 40
0.3750000027939677
 40
0.3750000027939677
 40
0.3750000027939677
 40
0.3750000027939677
 40
0.3888888917863369
 40
0.3888888917863369
 40
0.3888888917863369
 40
0.3888888917863369
 40
0.4027777807787061
 40
0.4027777807787061
 40
0.4027777807787061
 40
0.4027777807787061
 40
0.4166666697710753
 40
0.4166666697710753
 40
0.4166666697710753
 40
0.4166666697710753
 40
0.4305555587634444
 40
0.4305555587634444
 40
0.4305555587634444
 40
0.4305555587634444
 40
0.4444444477558136
 40
0.4444444477558136
 40
0.4444444477558136
 40
0.4444444477558136
 40
0.4583333367481828
 40
0.4583333367481828
 40
0.4583333367481828
 40
0.4583333367481828
 40
0.472222225740552
 40
0.472222225740552
 40
0.472222225740552
 40
0.472222225740552
 40
0.4861111147329211
 40
0.4861111147329211
 40
0.4861111147329211
 40
0.4861111147329211
 40
0.5000000037252903
 40
0.5000000037252903
 40
0.5000000037252903
 40
0.5000000037252903
 40
0.5138888927176595
 40
0.5138888927176595
 40
0.5138888927176595
 40
0.5138888927176595
 40
0.5277777817100287
 40
0.5277777817100287
 40
0.5277777817100287
 40
0.5277777817100287
 40
0.5416666707023978
 40
0.5416666707023978
 40
0.5416666707023978
 40
0.5416666707023978
 40
0.555555559694767
 40
0.555555559694767
 40
0.555555559694767
 40
0.555555559694767
 40
0.5694444486871362
 40
0.5694444486871362
 40
0.5694444486871362
 40
0.5694444486871362
 40
0.5833333376795054
 40
0.5833333376795054
 40
0.5833333376795054
 40
0.5833333376795054
 40
0.5972222266718745
 40
0.5972222266718745
 40
0.5972222266718745
 40
0.5972222266718745
 40
0.6111111156642437
 40
0.6111111156642437
 40
0.6111111156642437
 40
0.6111111156642437
 40
0.6250000046566129
 40
0.6250000046566129
 40
0.6250000046566129
 40
0.6250000046566129
 40
0.6388888936489821
 40
0.6388888936489821
 40
0.6388888936489821
 40
0.6388888936489821
 40
0.6527777826413512
 40
0.6527777826413512
 40
0.6527777826413512
 40
0.6527777826413512
 40
0.6666666716337204
 40
0.6666666716337204
 40
0.6666666716337204
 40
0.6666666716337204
 40
0.6805555606260896
 40
0.6805555606260896
 40
0.6805555606260896
 40
0.6805555606260896
 40
0.6944444496184588
 40
0.6944444496184588
 40
0.6944444496184588
 40
0.6944444496184588
 40
0.7083333386108279
 40
0.7083333386108279
 40
0.7083333386108279
 40
0.7083333386108279
 40
0.7222222276031971
 40
0.7222222276031971
 40
0.7222222276031971
 40
0.7222222276031971
 40
0.7361111165955663
 40
0.7361111165955663
 40
0.7361111165955663
 40
0.7361111165955663
 40
0.7500000055879355
 40
0.7500000055879355
 40
0.7500000055879355
 40
0.7500000055879355
 40
0.7638888945803046
 40
0.7638888945803046
 40
0.7638888945803046
 40
0.7638888945803046
 40
0.7777777835726738
 40
0.7777777835726738
 40
0.7777777835726738
 40
0.7777777835726738
 40
0.791666672565043
 40
0.791666672565043
 40
0.791666672565043
 40
0.791666672565043
 40
0.8055555615574122
 40
0.8055555615574122
 40
0.8055555615574122
 40
0.8055555615574122
 40
0.8194444505497813
 40
0.8194444505497813
 40
0.8194444505497813
 40
0.8194444505497813
 40
0.8333333395421505
 40
0.8333333395421505
 40
0.8333333395421505
 40
0.8333333395421505
 40
0.8472222285345197
 40
0.8472222285345197
 40
0.8472222285345197
 40
0.8472222285345197
 40
0.8611111175268889
 40
0.8611111175268889
 40
0.8611111175268889
 40
0.8611111175268889
 40
0.875000006519258
 40
0.875000006519258
 40
0.875000006519258
 40
0.875000006519258
 40
0.8888888955116272
 40
0.8888888955116272
 40
0.8888888955116272
 40
0.8888888955116272
 40
0.9027777845039964
 40
0.9027777845039964
 40
0.9027777845039964
 40
0.9027777845039964
 40
0.9166666734963656
 40
0.9166666734963656
 40
0.9166666734963656
 40
0.9166666734963656
 40
0.9305555624887347
 40
0.9305555624887347
 40
0.9305555624887347
 40
0.9305555624887347
 40
0.9444444514811039
 40
0.9444444514811039
 40
0.9444444514811039
 40
0.9444444514811039
 40
0.9583333404734731
 40
0.9583333404734731
 40
0.9583333404734731
 40
0.9583333404734731
 40
0.9722222294658423
 40
0.9722222294658423
 40
0.9722222294658423
 40
0.9722222294658423
 40
0.9861111184582114
 40
0.9861111184582114
 40
0.9861111184582114
 40
0.9861111184582114
 40
1.0
 40
1.0
 40
1.0
 40
1.0
 10
-588.88262939453125
 20
-433.34457397460937
 30
0.0
 10
-588.88262939453125
 20
-433.34457397460937
 30
0.0
 10
-588.88262939453125
 20
-433.34457397460937
 30
0.0
 10
-588.88262939453125
 20
-433.34457397460937
 30
0.0
 10
-588.88262939453125
 20
-433.34457397460937
 30
0.0
 10
-588.88262939453125
 20
-433.34457397460937
 30
0.0
 10
-589.11505126953125
 20
-443.92117309570312
 30
0.0
 10
-589.11505126953125
 20
-443.92117309570312
 30
0.0
 10
-589.11505126953125
 20
-443.92117309570312
 30
0.0
 10
-589.11505126953125
 20
-443.92117309570312
 30
0.0
 10
-589.11505126953125
 20
-443.92117309570312
 30
0.0
 10
-589.11505126953125
 20
-443.92117309570312
 30
0.0
 10
-589.11505126953125
 20
-443.92117309570312
 30
0.0
 10
-588.6090087890625
 20
-444.810791015625
 30
0.0
 10
-588.29931640625
 20
-445.67007446289062
 30
0.0
 10
-588.1861572265625
 20
-446.49871826171875
 30
0.0
 10
-588.1861572265625
 20
-446.49871826171875
 30
0.0
 10
-588.1861572265625
 20
-446.49871826171875
 30
0.0
 10
-588.1861572265625
 20
-446.49871826171875
 30
0.0
 10
-588.1861572265625
 20
-446.49871826171875
 30
0.0
 10
-588.1861572265625
 20
-446.49871826171875
 30
0.0
 10
-588.1861572265625
 20
-446.49871826171875
 30
0.0
 10
-589.12078857421875
 20
-446.51907348632812
 30
0.0
 10
-589.12078857421875
 20
-446.51907348632812
 30
0.0
 10
-589.12078857421875
 20
-446.51907348632812
 30
0.0
 10
-589.12078857421875
 20
-446.51907348632812
 30
0.0
 10
-589.12078857421875
 20
-446.51907348632812
 30
0.0
 10
-589.12078857421875
 20
-446.51907348632812
 30
0.0
 10
-589.12078857421875
 20
-446.51907348632812
 30
0.0
 10
-589.43511962890625
 20
-446.22781372070312
 30
0.0
 10
-589.80096435546875
 20
-445.94512939453125
 30
0.0
 10
-590.2178955078125
 20
-445.67141723632812
 30
0.0
 10
-590.2178955078125
 20
-445.67141723632812
 30
0.0
 10
-590.2178955078125
 20
-445.67141723632812
 30
0.0
 10
-590.2178955078125
 20
-445.67141723632812
 30
0.0
 10
-590.2178955078125
 20
-445.67141723632812
 30
0.0
 10
-590.2178955078125
 20
-445.67141723632812
 30
0.0
 10
-592.26556396484375
 20
-446.79345703125
 30
0.0
 10
-594.4302978515625
 20
-447.39657592773437
 30
0.0
 10
-596.7125244140625
 20
-447.48074340820312
 30
0.0
 10
-596.7125244140625
 20
-447.48074340820312
 30
0.0
 10
-596.7125244140625
 20
-447.48074340820312
 30
0.0
 10
-596.7125244140625
 20
-447.48074340820312
 30
0.0
 10
-596.7125244140625
 20
-447.48074340820312
 30
0.0
 10
-596.7125244140625
 20
-447.48074340820312
 30
0.0
 10
-596.7125244140625
 20
-447.48074340820312
 30
0.0
 10
-595.6688232421875
 20
-449.19717407226563
 30
0.0
 10
-595.6688232421875
 20
-449.19717407226563
 30
0.0
 10
-595.6688232421875
 20
-449.19717407226563
 30
0.0
 10
-595.6688232421875
 20
-449.19717407226563
 30
0.0
 10
-595.6688232421875
 20
-449.19717407226563
 30
0.0
 10
-595.6688232421875
 20
-449.19717407226563
 30
0.0
 10
-595.6688232421875
 20
-449.19717407226563
 30
0.0
 10
-593.22216796875
 20
-449.49813842773437
 30
0.0
 10
-590.8795166015625
 20
-448.77142333984375
 30
0.0
 10
-588.640625
 20
-447.016845703125
 30
0.0
 10
-588.640625
 20
-447.016845703125
 30
0.0
 10
-588.640625
 20
-447.016845703125
 30
0.0
 10
-588.640625
 20
-447.016845703125
 30
0.0
 10
-588.640625
 20
-447.016845703125
 30
0.0
 10
-588.640625
 20
-447.016845703125
 30
0.0
 10
-588.72821044921875
 20
-446.91409301757812
 30
0.0
 10
-588.8218994140625
 20
-446.81253051757813
 30
0.0
 10
-588.92120361328125
 20
-446.7119140625
 30
0.0
 10
-588.92120361328125
 20
-446.7119140625
 30
0.0
 10
-588.92120361328125
 20
-446.7119140625
 30
0.0
 10
-588.92120361328125
 20
-446.7119140625
 30
0.0
 10
-588.92120361328125
 20
-446.7119140625
 30
0.0
 10
-588.92120361328125
 20
-446.7119140625
 30
0.0
 10
-588.92120361328125
 20
-446.7119140625
 30
0.0
 10
-588.162841796875
 20
-446.6954345703125
 30
0.0
 10
-588.162841796875
 20
-446.6954345703125
 30
0.0
 10
-588.162841796875
 20
-446.6954345703125
 30
0.0
 10
-588.162841796875
 20
-446.6954345703125
 30
0.0
 10
-588.162841796875
 20
-446.6954345703125
 30
0.0
 10
-588.162841796875
 20
-446.6954345703125
 30
0.0
 10
-588.162841796875
 20
-446.6954345703125
 30
0.0
 10
-588.03509521484375
 20
-447.9783935546875
 30
0.0
 10
-588.38323974609375
 20
-449.1876220703125
 30
0.0
 10
-589.207763671875
 20
-450.32278442382812
 30
0.0
 10
-589.207763671875
 20
-450.32278442382812
 30
0.0
 10
-589.207763671875
 20
-450.32278442382812
 30
0.0
 10
-589.207763671875
 20
-450.32278442382812
 30
0.0
 10
-589.207763671875
 20
-450.32278442382812
 30
0.0
 10
-589.207763671875
 20
-450.32278442382812
 30
0.0
 10
-589.207763671875
 20
-450.32278442382812
 30
0.0
 10
-592.24005126953125
 20
-455.07553100585937
 30
0.0
 10
-592.24005126953125
 20
-455.07553100585937
 30
0.0
 10
-592.24005126953125
 20
-455.07553100585937
 30
0.0
 10
-592.24005126953125
 20
-455.07553100585937
 30
0.0
 10
-592.24005126953125
 20
-455.07553100585937
 30
0.0
 10
-592.24005126953125
 20
-455.07553100585937
 30
0.0
 10
-592.24005126953125
 20
-455.07553100585937
 30
0.0
 10
-593.2100830078125
 20
-456.5963134765625
 30
0.0
 10
-592.5491943359375
 20
-459.39474487304687
 30
0.0
 10
-592.33935546875
 20
-461.1085205078125
 30
0.0
 10
-592.33935546875
 20
-461.1085205078125
 30
0.0
 10
-592.33935546875
 20
-461.1085205078125
 30
0.0
 10
-592.33935546875
 20
-461.1085205078125
 30
0.0
 10
-592.33935546875
 20
-461.1085205078125
 30
0.0
 10
-592.33935546875
 20
-461.1085205078125
 30
0.0
 10
-592.33935546875
 20
-461.1085205078125
 30
0.0
 10
-594.26483154296875
 20
-463.12637329101562
 30
0.0
 10
-594.26483154296875
 20
-463.12637329101562
 30
0.0
 10
-594.26483154296875
 20
-463.12637329101562
 30
0.0
 10
-594.26483154296875
 20
-463.12637329101562
 30
0.0
 10
-594.26483154296875
 20
-463.12637329101562
 30
0.0
 10
-594.26483154296875
 20
-463.12637329101562
 30
0.0
 10
-594.26483154296875
 20
-463.12637329101562
 30
0.0
 10
-594.26483154296875
 20
-463.12637329101562
 30
0.0
 10
-596.05084228515625
 20
-462.05935668945312
 30
0.0
 10
-596.05084228515625
 20
-462.05935668945312
 30
0.0
 10
-596.05084228515625
 20
-462.05935668945312
 30
0.0
 10
-596.05084228515625
 20
-462.05935668945312
 30
0.0
 10
-596.05084228515625
 20
-462.05935668945312
 30
0.0
 10
-596.05084228515625
 20
-462.05935668945312
 30
0.0
 10
-596.05084228515625
 20
-462.05935668945312
 30
0.0
 10
-596.05084228515625
 20
-462.05935668945312
 30
0.0
 10
-599.225830078125
 20
-462.04806518554687
 30
0.0
 10
-599.225830078125
 20
-462.04806518554687
 30
0.0
 10
-599.225830078125
 20
-462.04806518554687
 30
0.0
 10
-599.225830078125
 20
-462.04806518554687
 30
0.0
 10
-599.225830078125
 20
-462.04806518554687
 30
0.0
 10
-599.225830078125
 20
-462.04806518554687
 30
0.0
 10
-599.225830078125
 20
-462.04806518554687
 30
0.0
 10
-599.225830078125
 20
-462.04806518554687
 30
0.0
 10
-602.4005126953125
 20
-462.05935668945312
 30
0.0
 10
-602.4005126953125
 20
-462.05935668945312
 30
0.0
 10
-602.4005126953125
 20
-462.05935668945312
 30
0.0
 10
-602.4005126953125
 20
-462.05935668945312
 30
0.0
 10
-602.4005126953125
 20
-462.05935668945312
 30
0.0
 10
-602.4005126953125
 20
-462.05935668945312
 30
0.0
 10
-602.4005126953125
 20
-462.05935668945312
 30
0.0
 10
-602.4005126953125
 20
-462.05935668945312
 30
0.0
 10
-604.1865234375
 20
-463.12637329101562
 30
0.0
 10
-604.1865234375
 20
-463.12637329101562
 30
0.0
 10
-604.1865234375
 20
-463.12637329101562
 30
0.0
 10
-604.1865234375
 20
-463.12637329101562
 30
0.0
 10
-604.1865234375
 20
-463.12637329101562
 30
0.0
 10
-604.1865234375
 20
-463.12637329101562
 30
0.0
 10
-604.1865234375
 20
-463.12637329101562
 30
0.0
 10
-604.1865234375
 20
-463.12637329101562
 30
0.0
 10
-606.11199951171875
 20
-461.1085205078125
 30
0.0
 10
-606.11199951171875
 20
-461.1085205078125
 30
0.0
 10
-606.11199951171875
 20
-461.1085205078125
 30
0.0
 10
-606.11199951171875
 20
-461.1085205078125
 30
0.0
 10
-606.11199951171875
 20
-461.1085205078125
 30
0.0
 10
-606.11199951171875
 20
-461.1085205078125
 30
0.0
 10
-606.11199951171875
 20
-461.1085205078125
 30
0.0
 10
-605.9022216796875
 20
-459.39474487304687
 30
0.0
 10
-605.2413330078125
 20
-456.5963134765625
 30
0.0
 10
-606.2113037109375
 20
-455.07553100585937
 30
0.0
 10
-606.2113037109375
 20
-455.07553100585937
 30
0.0
 10
-606.2113037109375
 20
-455.07553100585937
 30
0.0
 10
-606.2113037109375
 20
-455.07553100585937
 30
0.0
 10
-606.2113037109375
 20
-455.07553100585937
 30
0.0
 10
-606.2113037109375
 20
-455.07553100585937
 30
0.0
 10
-606.2113037109375
 20
-455.07553100585937
 30
0.0
 10
-609.24359130859375
 20
-450.32278442382812
 30
0.0
 10
-609.24359130859375
 20
-450.32278442382812
 30
0.0
 10
-609.24359130859375
 20
-450.32278442382812
 30
0.0
 10
-609.24359130859375
 20
-450.32278442382812
 30
0.0
 10
-609.24359130859375
 20
-450.32278442382812
 30
0.0
 10
-609.24359130859375
 20
-450.32278442382812
 30
0.0
 10
-609.24359130859375
 20
-450.32278442382812
 30
0.0
 10
-610.068115234375
 20
-449.1876220703125
 30
0.0
 10
-610.41644287109375
 20
-447.9783935546875
 30
0.0
 10
-610.28857421875
 20
-446.6954345703125
 30
0.0
 10
-610.28857421875
 20
-446.6954345703125
 30
0.0
 10
-610.28857421875
 20
-446.6954345703125
 30
0.0
 10
-610.28857421875
 20
-446.6954345703125
 30
0.0
 10
-610.28857421875
 20
-446.6954345703125
 30
0.0
 10
-610.28857421875
 20
-446.6954345703125
 30
0.0
 10
-610.28857421875
 20
-446.6954345703125
 30
0.0
 10
-609.53021240234375
 20
-446.7119140625
 30
0.0
 10
-609.53021240234375
 20
-446.7119140625
 30
0.0
 10
-609.53021240234375
 20
-446.7119140625
 30
0.0
 10
-609.53021240234375
 20
-446.7119140625
 30
0.0
 10
-609.53021240234375
 20
-446.7119140625
 30
0.0
 10
-609.53021240234375
 20
-446.7119140625
 30
0.0
 10
-609.53021240234375
 20
-446.7119140625
 30
0.0
 10
-609.629638671875
 20
-446.81253051757813
 30
0.0
 10
-609.7232666015625
 20
-446.91409301757812
 30
0.0
 10
-609.810791015625
 20
-447.016845703125
 30
0.0
 10
-609.810791015625
 20
-447.016845703125
 30
0.0
 10
-609.810791015625
 20
-447.016845703125
 30
0.0
 10
-609.810791015625
 20
-447.016845703125
 30
0.0
 10
-609.810791015625
 20
-447.016845703125
 30
0.0
 10
-609.810791015625
 20
-447.016845703125
 30
0.0
 10
-607.5718994140625
 20
-448.77142333984375
 30
0.0
 10
-605.229248046875
 20
-449.49813842773437
 30
0.0
 10
-602.78271484375
 20
-449.19717407226563
 30
0.0
 10
-602.78271484375
 20
-449.19717407226563
 30
0.0
 10
-602.78271484375
 20
-449.19717407226563
 30
0.0
 10
-602.78271484375
 20
-449.19717407226563
 30
0.0
 10
-602.78271484375
 20
-449.19717407226563
 30
0.0
 10
-602.78271484375
 20
-449.19717407226563
 30
0.0
 10
-602.78271484375
 20
-449.19717407226563
 30
0.0
 10
-601.7388916015625
 20
-447.48074340820312
 30
0.0
 10
-601.7388916015625
 20
-447.48074340820312
 30
0.0
 10
-601.7388916015625
 20
-447.48074340820312
 30
0.0
 10
-601.7388916015625
 20
-447.48074340820312
 30
0.0
 10
-601.7388916015625
 20
-447.48074340820312
 30
0.0
 10
-601.7388916015625
 20
-447.48074340820312
 30
0.0
 10
-601.7388916015625
 20
-447.48074340820312
 30
0.0
 10
-604.02105712890625
 20
-447.39657592773437
 30
0.0
 10
-606.18603515625
 20
-446.79345703125
 30
0.0
 10
-608.23345947265625
 20
-445.67141723632812
 30
0.0
 10
-608.23345947265625
 20
-445.67141723632812
 30
0.0
 10
-608.23345947265625
 20
-445.67141723632812
 30
0.0
 10
-608.23345947265625
 20
-445.67141723632812
 30
0.0
 10
-608.23345947265625
 20
-445.67141723632812
 30
0.0
 10
-608.23345947265625
 20
-445.67141723632812
 30
0.0
 10
-608.6505126953125
 20
-445.94512939453125
 30
0.0
 10
-609.0164794921875
 20
-446.22781372070312
 30
0.0
 10
-609.33074951171875
 20
-446.51898193359375
 30
0.0
 10
-609.33074951171875
 20
-446.51898193359375
 30
0.0
 10
-609.33074951171875
 20
-446.51898193359375
 30
0.0
 10
-609.33074951171875
 20
-446.51898193359375
 30
0.0
 10
-609.33074951171875
 20
-446.51898193359375
 30
0.0
 10
-609.33074951171875
 20
-446.51898193359375
 30
0.0
 10
-609.33074951171875
 20
-446.51898193359375
 30
0.0
 10
-610.2652587890625
 20
-446.49871826171875
 30
0.0
 10
-610.2652587890625
 20
-446.49871826171875
 30
0.0
 10
-610.2652587890625
 20
-446.49871826171875
 30
0.0
 10
-610.2652587890625
 20
-446.49871826171875
 30
0.0
 10
-610.2652587890625
 20
-446.49871826171875
 30
0.0
 10
-610.2652587890625
 20
-446.49871826171875
 30
0.0
 10
-610.2652587890625
 20
-446.49871826171875
 30
0.0
 10
-610.1522216796875
 20
-445.67007446289062
 30
0.0
 10
-609.84234619140625
 20
-444.810791015625
 30
0.0
 10
-609.3363037109375
 20
-443.92117309570312
 30
0.0
 10
-609.3363037109375
 20
-443.92117309570312
 30
0.0
 10
-609.3363037109375
 20
-443.92117309570312
 30
0.0
 10
-609.3363037109375
 20
-443.92117309570312
 30
0.0
 10
-609.3363037109375
 20
-443.92117309570312
 30
0.0
 10
-609.3363037109375
 20
-443.92117309570312
 30
0.0
 10
-609.3363037109375
 20
-443.92117309570312
 30
0.0
 10
-609.56884765625
 20
-433.34457397460937
 30
0.0
 10
-609.56884765625
 20
-433.34457397460937
 30
0.0
 10
-609.56884765625
 20
-433.34457397460937
 30
0.0
 10
-609.56884765625
 20
-433.34457397460937
 30
0.0
 10
-609.56884765625
 20
-433.34457397460937
 30
0.0
 10
-609.56884765625
 20
-433.34457397460937
 30
0.0
 10
-609.56884765625
 20
-433.34457397460937
 30
0.0
 10
-608.00018310546875
 20
-431.2696533203125
 30
0.0
 10
-605.9822998046875
 20
-429.96310424804687
 30
0.0
 10
-603.51519775390625
 20
-429.42489624023437
 30
0.0
 10
-603.51519775390625
 20
-429.42489624023437
 30
0.0
 10
-603.51519775390625
 20
-429.42489624023437
 30
0.0
 10
-603.51519775390625
 20
-429.42489624023437
 30
0.0
 10
-603.51519775390625
 20
-429.42489624023437
 30
0.0
 10
-603.51519775390625
 20
-429.42489624023437
 30
0.0
 10
-603.51519775390625
 20
-429.42489624023437
 30
0.0
 10
-601.8916015625
 20
-439.05111694335937
 30
0.0
 10
-601.8916015625
 20
-439.05111694335937
 30
0.0
 10
-601.8916015625
 20
-439.05111694335937
 30
0.0
 10
-601.8916015625
 20
-439.05111694335937
 30
0.0
 10
-601.8916015625
 20
-439.05111694335937
 30
0.0
 10
-601.8916015625
 20
-439.05111694335937
 30
0.0
 10
-601.8916015625
 20
-439.05111694335937
 30
0.0
 10
-601.02325439453125
 20
-439.12628173828125
 30
0.0
 10
-600.134521484375
 20
-439.16513061523437
 30
0.0
 10
-599.225830078125
 20
-439.16754150390625
 30
0.0
 10
-599.225830078125
 20
-439.16754150390625
 30
0.0
 10
-599.225830078125
 20
-439.16754150390625
 30
0.0
 10
-599.225830078125
 20
-439.16754150390625
 30
0.0
 10
-599.225830078125
 20
-439.16754150390625
 30
0.0
 10
-599.225830078125
 20
-439.16754150390625
 30
0.0
 10
-598.31683349609375
 20
-439.16513061523437
 30
0.0
 10
-597.42828369140625
 20
-439.12628173828125
 30
0.0
 10
-596.559814453125
 20
-439.05111694335937
 30
0.0
 10
-596.559814453125
 20
-439.05111694335937
 30
0.0
 10
-596.559814453125
 20
-439.05111694335937
 30
0.0
 10
-596.559814453125
 20
-439.05111694335937
 30
0.0
 10
-596.559814453125
 20
-439.05111694335937
 30
0.0
 10
-596.559814453125
 20
-439.05111694335937
 30
0.0
 10
-596.559814453125
 20
-439.05111694335937
 30
0.0
 10
-594.9361572265625
 20
-429.42489624023437
 30
0.0
 10
-594.9361572265625
 20
-429.42489624023437
 30
0.0
 10
-594.9361572265625
 20
-429.42489624023437
 30
0.0
 10
-592.4691162109375
 20
-429.96310424804687
 30
0.0
 10
-590.45135498046875
 20
-431.2696533203125
 30
0.0
 10
-588.88262939453125
 20
-433.34457397460937
 30
0.0
 10
-588.88262939453125
 20
-433.34457397460937
 30
0.0
 10
-588.88262939453125
 20
-433.34457397460937
 30
0.0
 10
-588.88262939453125
 20
-433.34457397460937
 30
0.0
 10
-588.88262939453125
 20
-433.34457397460937
 30
0.0
  0
SPLINE
  5
35
100
AcDbEntity
  8
layer0
 62
256
370
-1
 48
1.0
  6
BYLAYER
100
AcDbSpline
 70
8
 71
3
 72
132
 73
128
 74
0
 40
0.0
 40
0.0
 40
0.0
 40
0.0
 40
0.03125
 40
0.03125
 40
0.03125
 40
0.03125
 40
0.0625
 40
0.0625
 40
0.0625
 40
0.0625
 40
0.09375
 40
0.09375
 40
0.09375
 40
0.09375
 40
0.125
 40
0.125
 40
0.125
 40
0.125
 40
0.15625
 40
0.15625
 40
0.15625
 40
0.15625
 40
0.1875
 40
0.1875
 40
0.1875
 40
0.1875
 40
0.21875
 40
0.21875
 40
0.21875
 40
0.21875
 40
0.25
 40
0.25
 40
0.25
 40
0.25
 40
0.28125
 40
0.28125
 40
0.28125
 40
0.28125
 40
0.3125
 40
0.3125
 40
0.3125
 40
0.3125
 40
0.34375
 40
0.34375
 40
0.34375
 40
0.34375
 40
0.375
 40
0.375
 40
0.375
 40
0.375
 40
0.40625
 40
0.40625
 40
0.40625
 40
0.40625
 40
0.4375
 40
0.4375
 40
0.4375
 40
0.4375
 40
0.46875
 40
0.46875
 40
0.46875
 40
0.46875
 40
0.5
 40
0.5
 40
0.5
 40
0.5
 40
0.53125
 40
0.53125
 40
0.53125
 40
0.53125
 40
0.5625
 40
0.5625
 40
0.5625
 40
0.5625
 40
0.59375
 40
0.59375
 40
0.59375
 40
0.59375
 40
0.625
 40
0.625
 40
0.625
 40
0.625
 40
0.65625
 40
0.65625
 40
0.65625
 40
0.65625
 40
0.6875
 40
0.6875
 40
0.6875
 40
0.6875
 40
0.71875
 40
0.71875
 40
0.71875
 40
0.71875
 40
0.75
 40
0.75
 40
0.75
 40
0.75
 40
0.78125
 40
0.78125
 40
0.78125
 40
0.78125
 40
0.8125
 40
0.8125
 40
0.8125
 40
0.8125
 40
0.84375
 40
0.84375
 40
0.84375
 40
0.84375
 40
0.875
 40
0.875
 40
0.875
 40
0.875
 40
0.90625
 40
0.90625
 40
0.90625
 40
0.90625
 40
0.9375
 40
0.9375
 40
0.9375
 40
0.9375
 40
0.96875
 40
0.96875
 40
0.96875
 40
0.96875
 40
1.0
 40
1.0
 40
1.0
 40
1.0
 10
-586.90716552734375
 20
-432.96383666992187
 30
0.0
 10
-586.90716552734375
 20
-432.96383666992187
 30
0.0
 10
-586.90716552734375
 20
-432.96383666992187
 30
0.0
 10
-586.90716552734375
 20
-432.96383666992187
 30
0.0
 10
-586.90716552734375
 20
-432.96383666992187
 30
0.0
 10
-586.56927490234375
 20
-434.61428833007812
 30
0.0
 10
-586.24505615234375
 20
-436.96493530273437
 30
0.0
 10
-585.93505859375
 20
-440.01565551757813
 30
0.0
 10
-585.93505859375
 20
-440.01565551757813
 30
0.0
 10
-585.93505859375
 20
-440.01565551757813
 30
0.0
 10
-585.93505859375
 20
-440.01565551757813
 30
0.0
 10
-585.93505859375
 20
-440.01565551757813
 30
0.0
 10
-585.93505859375
 20
-440.01565551757813
 30
0.0
 10
-585.41485595703125
 20
-439.8653564453125
 30
0.0
 10
-585.17529296875
 20
-440.19766235351562
 30
0.0
 10
-585.21612548828125
 20
-441.012451171875
 30
0.0
 10
-585.21612548828125
 20
-441.012451171875
 30
0.0
 10
-585.21612548828125
 20
-441.012451171875
 30
0.0
 10
-585.21612548828125
 20
-441.012451171875
 30
0.0
 10
-585.21612548828125
 20
-441.012451171875
 30
0.0
 10
-585.21612548828125
 20
-441.012451171875
 30
0.0
 10
-585.21612548828125
 20
-441.012451171875
 30
0.0
 10
-585.304443359375
 20
-447.495361328125
 30
0.0
 10
-585.304443359375
 20
-447.495361328125
 30
0.0
 10
-585.304443359375
 20
-447.495361328125
 30
0.0
 10
-585.304443359375
 20
-447.495361328125
 30
0.0
 10
-585.304443359375
 20
-447.495361328125
 30
0.0
 10
-585.304443359375
 20
-447.495361328125
 30
0.0
 10
-585.304443359375
 20
-447.495361328125
 30
0.0
 10
-585.3145751953125
 20
-448.23434448242187
 30
0.0
 10
-585.6263427734375
 20
-448.52792358398437
 30
0.0
 10
-586.4222412109375
 20
-448.57373046875
 30
0.0
 10
-586.4222412109375
 20
-448.57373046875
 30
0.0
 10
-586.4222412109375
 20
-448.57373046875
 30
0.0
 10
-586.4222412109375
 20
-448.57373046875
 30
0.0
 10
-586.4222412109375
 20
-448.57373046875
 30
0.0
 10
-586.4222412109375
 20
-448.57373046875
 30
0.0
 10
-587.2943115234375
 20
-454.056640625
 30
0.0
 10
-588.42572021484375
 20
-457.82650756835937
 30
0.0
 10
-589.81646728515625
 20
-459.88320922851562
 30
0.0
 10
-589.81646728515625
 20
-459.88320922851562
 30
0.0
 10
-589.81646728515625
 20
-459.88320922851562
 30
0.0
 10
-589.81646728515625
 20
-459.88320922851562
 30
0.0
 10
-589.81646728515625
 20
-459.88320922851562
 30
0.0
 10
-589.81646728515625
 20
-459.88320922851562
 30
0.0
 10
-590.73736572265625
 20
-461.2447509765625
 30
0.0
 10
-592.7633056640625
 20
-463.1185302734375
 30
0.0
 10
-594.30218505859375
 20
-464.18182373046875
 30
0.0
 10
-594.30218505859375
 20
-464.18182373046875
 30
0.0
 10
-594.30218505859375
 20
-464.18182373046875
 30
0.0
 10
-594.30218505859375
 20
-464.18182373046875
 30
0.0
 10
-594.30218505859375
 20
-464.18182373046875
 30
0.0
 10
-594.30218505859375
 20
-464.18182373046875
 30
0.0
 10
-595.20281982421875
 20
-464.8045654296875
 30
0.0
 10
-597.255126953125
 20
-464.94857788085937
 30
0.0
 10
-599.2255859375
 20
-464.90673828125
 30
0.0
 10
-599.2255859375
 20
-464.90673828125
 30
0.0
 10
-599.2255859375
 20
-464.90673828125
 30
0.0
 10
-599.2255859375
 20
-464.90673828125
 30
0.0
 10
-599.2255859375
 20
-464.90673828125
 30
0.0
 10
-599.2255859375
 20
-464.90673828125
 30
0.0
 10
-601.19622802734375
 20
-464.94857788085937
 30
0.0
 10
-603.24853515625
 20
-464.8045654296875
 30
0.0
 10
-604.14923095703125
 20
-464.18182373046875
 30
0.0
 10
-604.14923095703125
 20
-464.18182373046875
 30
0.0
 10
-604.14923095703125
 20
-464.18182373046875
 30
0.0
 10
-604.14923095703125
 20
-464.18182373046875
 30
0.0
 10
-604.14923095703125
 20
-464.18182373046875
 30
0.0
 10
-604.14923095703125
 20
-464.18182373046875
 30
0.0
 10
-605.6881103515625
 20
-463.1185302734375
 30
0.0
 10
-607.71405029296875
 20
-461.2447509765625
 30
0.0
 10
-608.63482666015625
 20
-459.88320922851562
 30
0.0
 10
-608.63482666015625
 20
-459.88320922851562
 30
0.0
 10
-608.63482666015625
 20
-459.88320922851562
 30
0.0
 10
-608.63482666015625
 20
-459.88320922851562
 30
0.0
 10
-608.63482666015625
 20
-459.88320922851562
 30
0.0
 10
-608.63482666015625
 20
-459.88320922851562
 30
0.0
 10
-610.025634765625
 20
-457.82650756835937
 30
0.0
 10
-611.1571044921875
 20
-454.056640625
 30
0.0
 10
-612.0291748046875
 20
-448.57373046875
 30
0.0
 10
-612.0291748046875
 20
-448.57373046875
 30
0.0
 10
-612.0291748046875
 20
-448.57373046875
 30
0.0
 10
-612.0291748046875
 20
-448.57373046875
 30
0.0
 10
-612.0291748046875
 20
-448.57373046875
 30
0.0
 10
-612.0291748046875
 20
-448.57373046875
 30
0.0
 10
-612.82513427734375
 20
-448.52792358398437
 30
0.0
 10
-613.1368408203125
 20
-448.23434448242187
 30
0.0
 10
-613.14691162109375
 20
-447.495361328125
 30
0.0
 10
-613.14691162109375
 20
-447.495361328125
 30
0.0
 10
-613.14691162109375
 20
-447.495361328125
 30
0.0
 10
-613.14691162109375
 20
-447.495361328125
 30
0.0
 10
-613.14691162109375
 20
-447.495361328125
 30
0.0
 10
-613.14691162109375
 20
-447.495361328125
 30
0.0
 10
-613.14691162109375
 20
-447.495361328125
 30
0.0
 10
-613.2352294921875
 20
-441.012451171875
 30
0.0
 10
-613.2352294921875
 20
-441.012451171875
 30
0.0
 10
-613.2352294921875
 20
-441.012451171875
 30
0.0
 10
-613.2352294921875
 20
-441.012451171875
 30
0.0
 10
-613.2352294921875
 20
-441.012451171875
 30
0.0
 10
-613.2352294921875
 20
-441.012451171875
 30
0.0
 10
-613.2352294921875
 20
-441.012451171875
 30
0.0
 10
-613.27606201171875
 20
-440.19766235351562
 30
0.0
 10
-613.036376953125
 20
-439.8653564453125
 30
0.0
 10
-612.516357421875
 20
-440.01565551757813
 30
0.0
 10
-612.516357421875
 20
-440.01565551757813
 30
0.0
 10
-612.516357421875
 20
-440.01565551757813
 30
0.0
 10
-612.516357421875
 20
-440.01565551757813
 30
0.0
 10
-612.516357421875
 20
-440.01565551757813
 30
0.0
 10
-612.516357421875
 20
-440.01565551757813
 30
0.0
 10
-612.206298828125
 20
-436.96493530273437
 30
0.0
 10
-611.88214111328125
 20
-434.61428833007812
 30
0.0
 10
-611.544189453125
 20
-432.96383666992187
 30
0.0
 10
-611.544189453125
 20
-432.96383666992187
 30
0.0
 10
-610.5487060546875
 20
-428.099365234375
 30
0.0
 10
-603.4967041015625
 20
-426.79122924804687
 30
0.0
 10
-599.2255859375
 20
-426.857666015625
 30
0.0
 10
-599.2255859375
 20
-426.857666015625
 30
0.0
 10
-599.2255859375
 20
-426.857666015625
 30
0.0
 10
-599.2255859375
 20
-426.857666015625
 30
0.0
 10
-599.2255859375
 20
-426.857666015625
 30
0.0
 10
-599.2255859375
 20
-426.857666015625
 30
0.0
 10
-594.9544677734375
 20
-426.79122924804687
 30
0.0
 10
-587.90264892578125
 20
-428.099365234375
 30
0.0
 10
-586.90716552734375
 20
-432.96383666992187
 30
0.0
 10
-586.90716552734375
 20
-432.96383666992187
 30
0.0
 10
-586.90716552734375
 20
-432.96383666992187
 30
0.0
 10
-586.90716552734375
 20
-432.96383666992187
 30
0.0
 10
-586.90716552734375
 20
-432.96383666992187
 30
0.0
  0
SPLINE
  5
36
100
AcDbEntity
  8
layer0
 62
256
370
-1
 48
1.0
  6
BYLAYER
100
AcDbSpline
 70
8
 71
3
 72
88
 73
84
 74
0
 40
0.0
 40
0.0
 40
0.0
 40
0.0
 40
0.0476190485060215
 40
0.0476190485060215
 40
0.0476190485060215
 40
0.0476190485060215
 40
0.095238097012043
 40
0.095238097012043
 40
0.095238097012043
 40
0.095238097012043
 40
0.1428571455180645
 40
0.1428571455180645
 40
0.1428571455180645
 40
0.1428571455180645
 40
0.190476194024086
 40
0.190476194024086
 40
0.190476194024086
 40
0.190476194024086
 40
0.2380952425301075
 40
0.2380952425301075
 40
0.2380952425301075
 40
0.2380952425301075
 40
0.285714291036129
 40
0.285714291036129
 40
0.285714291036129
 40
0.285714291036129
 40
0.3333333395421505
 40
0.3333333395421505
 40
0.3333333395421505
 40
0.3333333395421505
 40
0.380952388048172
 40
0.380952388048172
 40
0.380952388048172
 40
0.380952388048172
 40
0.4285714365541935
 40
0.4285714365541935
 40
0.4285714365541935
 40
0.4285714365541935
 40
0.476190485060215
 40
0.476190485060215
 40
0.476190485060215
 40
0.476190485060215
 40
0.5238095335662365
 40
0.5238095335662365
 40
0.5238095335662365
 40
0.5238095335662365
 40
0.571428582072258
 40
0.571428582072258
 40
0.571428582072258
 40
0.571428582072258
 40
0.6190476305782795
 40
0.6190476305782795
 40
0.6190476305782795
 40
0.6190476305782795
 40
0.666666679084301
 40
0.666666679084301
 40
0.666666679084301
 40
0.666666679084301
 40
0.7142857275903225
 40
0.7142857275903225
 40
0.7142857275903225
 40
0.7142857275903225
 40
0.761904776096344
 40
0.761904776096344
 40
0.761904776096344
 40
0.761904776096344
 40
0.8095238246023655
 40
0.8095238246023655
 40
0.8095238246023655
 40
0.8095238246023655
 40
0.857142873108387
 40
0.857142873108387
 40
0.857142873108387
 40
0.857142873108387
 40
0.9047619216144085
 40
0.9047619216144085
 40
0.9047619216144085
 40
0.9047619216144085
 40
0.95238097012043
 40
0.95238097012043
 40
0.95238097012043
 40
0.95238097012043
 40
1.0
 40
1.0
 40
1.0
 40
1.0
 10
-584.50604248046875
 20
-465.71453857421875
 30
0.0
 10
-584.3203125
 20
-465.71453857421875
 30
0.0
 10
-584.17694091796875
 20
-465.74969482421875
 30
0.0
 10
-584.0760498046875
 20
-465.82003784179687
 30
0.0
 10
-584.0760498046875
 20
-465.82003784179687
 30
0.0
 10
-583.9752197265625
 20
-465.89035034179687
 30
0.0
 10
-583.83721923828125
 20
-466.07281494140625
 30
0.0
 10
-583.66204833984375
 20
-466.36740112304687
 30
0.0
 10
-583.66204833984375
 20
-466.36740112304687
 30
0.0
 10
-583.5054931640625
 20
-466.62747192382812
 30
0.0
 10
-583.36883544921875
 20
-466.88360595703125
 30
0.0
 10
-583.2520751953125
 20
-467.13571166992187
 30
0.0
 10
-583.2520751953125
 20
-467.13571166992187
 30
0.0
 10
-583.13525390625
 20
-467.3878173828125
 30
0.0
 10
-583.0377197265625
 20
-467.63998413085937
 30
0.0
 10
-582.95947265625
 20
-467.89208984375
 30
0.0
 10
-582.95947265625
 20
-467.89208984375
 30
0.0
 10
-582.88116455078125
 20
-468.14419555664062
 30
0.0
 10
-582.8221435546875
 20
-468.40692138671875
 30
0.0
 10
-582.78228759765625
 20
-468.6802978515625
 30
0.0
 10
-582.78228759765625
 20
-468.6802978515625
 30
0.0
 10
-582.742431640625
 20
-468.95364379882812
 30
0.0
 10
-582.72259521484375
 20
-469.24026489257812
 30
0.0
 10
-582.72259521484375
 20
-469.5401611328125
 30
0.0
 10
-582.72259521484375
 20
-469.5401611328125
 30
0.0
 10
-582.72259521484375
 20
-470.1240234375
 30
0.0
 10
-582.80023193359375
 20
-470.666748046875
 30
0.0
 10
-582.9554443359375
 20
-471.1683349609375
 30
0.0
 10
-582.9554443359375
 20
-471.1683349609375
 30
0.0
 10
-583.1107177734375
 20
-471.669921875
 30
0.0
 10
-583.34625244140625
 20
-472.18081665039062
 30
0.0
 10
-583.66204833984375
 20
-472.70095825195312
 30
0.0
 10
-583.66204833984375
 20
-472.70095825195312
 30
0.0
 10
-583.83984375
 20
-472.99288940429687
 30
0.0
 10
-583.98052978515625
 20
-473.176025390625
 30
0.0
 10
-584.08404541015625
 20
-473.25033569335937
 30
0.0
 10
-584.08404541015625
 20
-473.25033569335937
 30
0.0
 10
-584.1875
 20
-473.32464599609375
 30
0.0
 10
-584.32818603515625
 20
-473.36178588867187
 30
0.0
 10
-584.50604248046875
 20
-473.36178588867187
 30
0.0
 10
-584.50604248046875
 20
-473.36178588867187
 30
0.0
 10
-584.63873291015625
 20
-473.36178588867187
 30
0.0
 10
-584.70501708984375
 20
-473.32595825195312
 30
0.0
 10
-584.70501708984375
 20
-473.25430297851562
 30
0.0
 10
-584.70501708984375
 20
-473.25430297851562
 30
0.0
 10
-584.70501708984375
 20
-473.23040771484375
 30
0.0
 10
-584.64935302734375
 20
-473.10238647460937
 30
0.0
 10
-584.53790283203125
 20
-472.87014770507812
 30
0.0
 10
-584.53790283203125
 20
-472.87014770507812
 30
0.0
 10
-584.4263916015625
 20
-472.637939453125
 30
0.0
 10
-584.310302734375
 20
-472.36129760742187
 30
0.0
 10
-584.18951416015625
 20
-472.04013061523437
 30
0.0
 10
-584.18951416015625
 20
-472.04013061523437
 30
0.0
 10
-584.06878662109375
 20
-471.71902465820312
 30
0.0
 10
-583.9639892578125
 20
-471.34149169921875
 30
0.0
 10
-583.87506103515625
 20
-470.90756225585937
 30
0.0
 10
-583.87506103515625
 20
-470.90756225585937
 30
0.0
 10
-583.7861328125
 20
-470.47366333007812
 30
0.0
 10
-583.74169921875
 20
-470.01785278320312
 30
0.0
 10
-583.74169921875
 20
-469.5401611328125
 30
0.0
 10
-583.74169921875
 20
-469.5401611328125
 30
0.0
 10
-583.74169921875
 20
-469.05978393554687
 30
0.0
 10
-583.78680419921875
 20
-468.60198974609375
 30
0.0
 10
-583.8770751953125
 20
-468.16677856445312
 30
0.0
 10
-583.8770751953125
 20
-468.16677856445312
 30
0.0
 10
-583.96728515625
 20
-467.73150634765625
 30
0.0
 10
-584.0721435546875
 20
-467.35467529296875
 30
0.0
 10
-584.1915283203125
 20
-467.03616333007812
 30
0.0
 10
-584.1915283203125
 20
-467.03616333007812
 30
0.0
 10
-584.31097412109375
 20
-466.71771240234375
 30
0.0
 10
-584.4263916015625
 20
-466.44107055664062
 30
0.0
 10
-584.53790283203125
 20
-466.2061767578125
 30
0.0
 10
-584.53790283203125
 20
-466.2061767578125
 30
0.0
 10
-584.64935302734375
 20
-465.9713134765625
 30
0.0
 10
-584.70501708984375
 20
-465.84326171875
 30
0.0
 10
-584.70501708984375
 20
-465.822021484375
 30
0.0
 10
-584.70501708984375
 20
-465.822021484375
 30
0.0
 10
-584.70501708984375
 20
-465.7503662109375
 30
0.0
 10
-584.63873291015625
 20
-465.71453857421875
 30
0.0
 10
-584.50604248046875
 20
-465.71453857421875
 30
0.0
 10
-584.50604248046875
 20
-465.71453857421875
 30
0.0
 10
-584.50604248046875
 20
-465.71453857421875
 30
0.0
 10
-584.50604248046875
 20
-465.71453857421875
 30
0.0
 10
-584.50604248046875
 20
-465.71453857421875
 30
0.0
  0
SPLINE
  5
37
100
AcDbEntity
  8
layer0
 62
256
370
-1
 48
1.0
  6
BYLAYER
100
AcDbSpline
 70
8
 71
3
 72
44
 73
40
 74
0
 40
0.0
 40
0.0
 40
0.0
 40
0.0
 40
0.1000000014901161
 40
0.1000000014901161
 40
0.1000000014901161
 40
0.1000000014901161
 40
0.2000000029802322
 40
0.2000000029802322
 40
0.2000000029802322
 40
0.2000000029802322
 40
0.3000000044703484
 40
0.3000000044703484
 40
0.3000000044703484
 40
0.3000000044703484
 40
0.4000000059604645
 40
0.4000000059604645
 40
0.4000000059604645
 40
0.4000000059604645
 40
0.5000000074505806
 40
0.5000000074505806
 40
0.5000000074505806
 40
0.5000000074505806
 40
0.6000000089406967
 40
0.6000000089406967
 40
0.6000000089406967
 40
0.6000000089406967
 40
0.7000000104308128
 40
0.7000000104308128
 40
0.7000000104308128
 40
0.7000000104308128
 40
0.800000011920929
 40
0.800000011920929
 40
0.800000011920929
 40
0.800000011920929
 40
0.9000000134110451
 40
0.9000000134110451
 40
0.9000000134110451
 40
0.9000000134110451
 40
1.0
 40
1.0
 40
1.0
 40
1.0
 10
-586.03070068359375
 20
-467.48800659179687
 30
0.0
 10
-585.9139404296875
 20
-467.59283447265625
 30
0.0
 10
-585.85552978515625
 20
-467.7381591796875
 30
0.0
 10
-585.85552978515625
 20
-467.92391967773438
 30
0.0
 10
-585.85552978515625
 20
-467.92391967773438
 30
0.0
 10
-585.85552978515625
 20
-468.0751953125
 30
0.0
 10
-585.917236328125
 20
-468.2125244140625
 30
0.0
 10
-586.0406494140625
 20
-468.33596801757813
 30
0.0
 10
-586.0406494140625
 20
-468.33596801757813
 30
0.0
 10
-586.16400146484375
 20
-468.4593505859375
 30
0.0
 10
-586.300048828125
 20
-468.52105712890625
 30
0.0
 10
-586.44866943359375
 20
-468.52105712890625
 30
0.0
 10
-586.44866943359375
 20
-468.52105712890625
 30
0.0
 10
-586.5601806640625
 20
-468.52105712890625
 30
0.0
 10
-586.66162109375
 20
-468.4945068359375
 30
0.0
 10
-586.75323486328125
 20
-468.44143676757812
 30
0.0
 10
-586.75323486328125
 20
-468.44143676757812
 30
0.0
 10
-586.84478759765625
 20
-468.38836669921875
 30
0.0
 10
-586.91778564453125
 20
-468.3173828125
 30
0.0
 10
-586.97216796875
 20
-468.22845458984375
 30
0.0
 10
-586.97216796875
 20
-468.22845458984375
 30
0.0
 10
-587.02655029296875
 20
-468.13955688476562
 30
0.0
 10
-587.05377197265625
 20
-468.03805541992187
 30
0.0
 10
-587.05377197265625
 20
-467.92391967773438
 30
0.0
 10
-587.05377197265625
 20
-467.92391967773438
 30
0.0
 10
-587.05377197265625
 20
-467.73550415039062
 30
0.0
 10
-586.99468994140625
 20
-467.58953857421875
 30
0.0
 10
-586.87664794921875
 20
-467.48602294921875
 30
0.0
 10
-586.87664794921875
 20
-467.48602294921875
 30
0.0
 10
-586.758544921875
 20
-467.38250732421875
 30
0.0
 10
-586.6158447265625
 20
-467.33078002929687
 30
0.0
 10
-586.44866943359375
 20
-467.33078002929687
 30
0.0
 10
-586.44866943359375
 20
-467.33078002929687
 30
0.0
 10
-586.28680419921875
 20
-467.33078002929687
 30
0.0
 10
-586.1474609375
 20
-467.38320922851563
 30
0.0
 10
-586.03070068359375
 20
-467.48800659179687
 30
0.0
 10
-586.03070068359375
 20
-467.48800659179687
 30
0.0
 10
-586.03070068359375
 20
-467.48800659179687
 30
0.0
 10
-586.03070068359375
 20
-467.48800659179687
 30
0.0
 10
-586.03070068359375
 20
-467.48800659179687
 30
0.0
  0
SPLINE
  5
38
100
AcDbEntity
  8
layer0
 62
256
370
-1
 48
1.0
  6
BYLAYER
100
AcDbSpline
 70
8
 71
3
 72
64
 73
60
 74
0
 40
0.0
 40
0.0
 40
0.0
 40
0.0
 40
0.0666666701436043
 40
0.0666666701436043
 40
0.0666666701436043
 40
0.0666666701436043
 40
0.1333333402872086
 40
0.1333333402872086
 40
0.1333333402872086
 40
0.1333333402872086
 40
0.2000000104308128
 40
0.2000000104308128
 40
0.2000000104308128
 40
0.2000000104308128
 40
0.2666666805744171
 40
0.2666666805744171
 40
0.2666666805744171
 40
0.2666666805744171
 40
0.3333333507180214
 40
0.3333333507180214
 40
0.3333333507180214
 40
0.3333333507180214
 40
0.4000000208616257
 40
0.4000000208616257
 40
0.4000000208616257
 40
0.4000000208616257
 40
0.46666669100523
 40
0.46666669100523
 40
0.46666669100523
 40
0.46666669100523
 40
0.5333333611488342
 40
0.5333333611488342
 40
0.5333333611488342
 40
0.5333333611488342
 40
0.6000000312924385
 40
0.6000000312924385
 40
0.6000000312924385
 40
0.6000000312924385
 40
0.6666667014360428
 40
0.6666667014360428
 40
0.6666667014360428
 40
0.6666667014360428
 40
0.7333333715796471
 40
0.7333333715796471
 40
0.7333333715796471
 40
0.7333333715796471
 40
0.8000000417232513
 40
0.8000000417232513
 40
0.8000000417232513
 40
0.8000000417232513
 40
0.8666667118668556
 40
0.8666667118668556
 40
0.8666667118668556
 40
0.8666667118668556
 40
0.9333333820104599
 40
0.9333333820104599
 40
0.9333333820104599
 40
0.9333333820104599
 40
1.0
 40
1.0
 40
1.0
 40
1.0
 10
-586.5242919921875
 20
-470.55130004882812
 30
0.0
 10
-586.39691162109375
 20
-470.55130004882812
 30
0.0
 10
-586.281494140625
 20
-470.5858154296875
 30
0.0
 10
-586.177978515625
 20
-470.65481567382812
 30
0.0
 10
-586.177978515625
 20
-470.65481567382812
 30
0.0
 10
-586.074462890625
 20
-470.72378540039062
 30
0.0
 10
-585.9935302734375
 20
-470.82528686523437
 30
0.0
 10
-585.9351806640625
 20
-470.9593505859375
 30
0.0
 10
-585.9351806640625
 20
-470.9593505859375
 30
0.0
 10
-585.87677001953125
 20
-471.0933837890625
 30
0.0
 10
-585.8475341796875
 20
-471.25857543945312
 30
0.0
 10
-585.8475341796875
 20
-471.4549560546875
 30
0.0
 10
-585.8475341796875
 20
-471.4549560546875
 30
0.0
 10
-585.8475341796875
 20
-471.71768188476562
 30
0.0
 10
-585.9033203125
 20
-471.96383666992187
 30
0.0
 10
-586.0147705078125
 20
-472.19338989257812
 30
0.0
 10
-586.0147705078125
 20
-472.19338989257812
 30
0.0
 10
-586.126220703125
 20
-472.4229736328125
 30
0.0
 10
-586.26220703125
 20
-472.60476684570312
 30
0.0
 10
-586.42279052734375
 20
-472.73876953125
 30
0.0
 10
-586.42279052734375
 20
-472.73876953125
 30
0.0
 10
-586.5833740234375
 20
-472.87283325195312
 30
0.0
 10
-586.72869873046875
 20
-472.9398193359375
 30
0.0
 10
-586.85870361328125
 20
-472.9398193359375
 30
0.0
 10
-586.85870361328125
 20
-472.9398193359375
 30
0.0
 10
-586.94097900390625
 20
-472.9398193359375
 30
0.0
 10
-587.00732421875
 20
-472.91262817382812
 30
0.0
 10
-587.0577392578125
 20
-472.85821533203125
 30
0.0
 10
-587.0577392578125
 20
-472.85821533203125
 30
0.0
 10
-587.108154296875
 20
-472.80380249023437
 30
0.0
 10
-587.13336181640625
 20
-472.74078369140625
 30
0.0
 10
-587.13336181640625
 20
-472.66912841796875
 30
0.0
 10
-587.13336181640625
 20
-472.66912841796875
 30
0.0
 10
-587.13336181640625
 20
-472.56033325195312
 30
0.0
 10
-587.08026123046875
 20
-472.47274780273437
 30
0.0
 10
-586.97418212890625
 20
-472.40640258789062
 30
0.0
 10
-586.97418212890625
 20
-472.40640258789062
 30
0.0
 10
-586.66363525390625
 20
-472.23654174804687
 30
0.0
 10
-586.5084228515625
 20
-472.02023315429687
 30
0.0
 10
-586.5084228515625
 20
-471.75750732421875
 30
0.0
 10
-586.5084228515625
 20
-471.75750732421875
 30
0.0
 10
-586.68353271484375
 20
-471.75750732421875
 30
0.0
 10
-586.8348388671875
 20
-471.70376586914062
 30
0.0
 10
-586.96221923828125
 20
-471.59628295898437
 30
0.0
 10
-586.96221923828125
 20
-471.59628295898437
 30
0.0
 10
-587.089599609375
 20
-471.48880004882812
 30
0.0
 10
-587.1533203125
 20
-471.33819580078125
 30
0.0
 10
-587.1533203125
 20
-471.14443969726562
 30
0.0
 10
-587.1533203125
 20
-471.14443969726562
 30
0.0
 10
-587.1533203125
 20
-470.97726440429687
 30
0.0
 10
-587.0909423828125
 20
-470.83657836914062
 30
0.0
 10
-586.9661865234375
 20
-470.72247314453125
 30
0.0
 10
-586.9661865234375
 20
-470.72247314453125
 30
0.0
 10
-586.8414306640625
 20
-470.60833740234375
 30
0.0
 10
-586.69415283203125
 20
-470.55130004882812
 30
0.0
 10
-586.5242919921875
 20
-470.55130004882812
 30
0.0
 10
-586.5242919921875
 20
-470.55130004882812
 30
0.0
 10
-586.5242919921875
 20
-470.55130004882812
 30
0.0
 10
-586.5242919921875
 20
-470.55130004882812
 30
0.0
 10
-586.5242919921875
 20
-470.55130004882812
 30
0.0
  0
LINE
  5
39
100
AcDbEntity
  8
layer0
 62
256
370
-1
 48
1.0
  6
BYLAYER
100
AcDbLine
 10
-591.583984375
 20
-469.71929931640625
 30
0.0
 11
-591.583984375
 21
-469.56405639648437
 31
0.0
  0
SPLINE
  5
3A
100
AcDbEntity
  8
layer0
 62
256
370
-1
 48
1.0
  6
BYLAYER
100
AcDbSpline
 70
8
 71
3
 72
40
 73
36
 74
0
 40
0.0
 40
0.0
 40
0.0
 40
0.0
 40
0.1111111119389534
 40
0.1111111119389534
 40
0.1111111119389534
 40
0.1111111119389534
 40
0.2222222238779068
 40
0.2222222238779068
 40
0.2222222238779068
 40
0.2222222238779068
 40
0.3333333358168602
 40
0.3333333358168602
 40
0.3333333358168602
 40
0.3333333358168602
 40
0.4444444477558136
 40
0.4444444477558136
 40
0.4444444477558136
 40
0.4444444477558136
 40
0.555555559694767
 40
0.555555559694767
 40
0.555555559694767
 40
0.555555559694767
 40
0.6666666716337204
 40
0.6666666716337204
 40
0.6666666716337204
 40
0.6666666716337204
 40
0.7777777835726738
 40
0.7777777835726738
 40
0.7777777835726738
 40
0.7777777835726738
 40
0.8888888955116272
 40
0.8888888955116272
 40
0.8888888955116272
 40
0.8888888955116272
 40
1.0
 40
1.0
 40
1.0
 40
1.0
 10
-591.583984375
 20
-469.56405639648437
 30
0.0
 10
-591.74322509765625
 20
-469.6224365234375
 30
0.0
 10
-591.9747314453125
 20
-469.68414306640625
 30
0.0
 10
-592.2786865234375
 20
-469.74917602539062
 30
0.0
 10
-592.2786865234375
 20
-469.74917602539062
 30
0.0
 10
-592.58251953125
 20
-469.81414794921875
 30
0.0
 10
-592.7928466796875
 20
-469.8619384765625
 30
0.0
 10
-592.90960693359375
 20
-469.8924560546875
 30
0.0
 10
-592.90960693359375
 20
-469.8924560546875
 30
0.0
 10
-593.0263671875
 20
-469.9229736328125
 30
0.0
 10
-593.137939453125
 20
-469.98269653320312
 30
0.0
 10
-593.2440185546875
 20
-470.07159423828125
 30
0.0
 10
-593.2440185546875
 20
-470.07159423828125
 30
0.0
 10
-593.35015869140625
 20
-470.16049194335937
 30
0.0
 10
-593.40325927734375
 20
-470.28457641601562
 30
0.0
 10
-593.40325927734375
 20
-470.44381713867187
 30
0.0
 10
-593.40325927734375
 20
-470.44381713867187
 30
0.0
 10
-593.40325927734375
 20
-470.60833740234375
 30
0.0
 10
-593.3409423828125
 20
-470.74835205078125
 30
0.0
 10
-593.21612548828125
 20
-470.86380004882812
 30
0.0
 10
-593.21612548828125
 20
-470.86380004882812
 30
0.0
 10
-593.0914306640625
 20
-470.97921752929687
 30
0.0
 10
-592.92822265625
 20
-471.03695678710937
 30
0.0
 10
-592.72650146484375
 20
-471.03695678710937
 30
0.0
 10
-592.72650146484375
 20
-471.03695678710937
 30
0.0
 10
-592.51153564453125
 20
-471.03695678710937
 30
0.0
 10
-592.3131103515625
 20
-470.9898681640625
 30
0.0
 10
-592.13140869140625
 20
-470.89566040039062
 30
0.0
 10
-592.13140869140625
 20
-470.89566040039062
 30
0.0
 10
-591.94964599609375
 20
-470.80142211914062
 30
0.0
 10
-591.81622314453125
 20
-470.67999267578125
 30
0.0
 10
-591.7313232421875
 20
-470.53140258789062
 30
0.0
 10
-591.7313232421875
 20
-470.53140258789062
 30
0.0
 10
-591.63311767578125
 20
-470.36685180664062
 30
0.0
 10
-591.583984375
 20
-470.09616088867187
 30
0.0
 10
-591.583984375
 20
-469.71929931640625
 30
0.0
  0
SPLINE
  5
3B
100
AcDbEntity
  8
layer0
 62
256
370
-1
 48
1.0
  6
BYLAYER
100
AcDbSpline
 70
8
 71
3
 72
136
 73
132
 74
0
 40
0.0
 40
0.0
 40
0.0
 40
0.0
 40
0.030303031206131
 40
0.030303031206131
 40
0.030303031206131
 40
0.030303031206131
 40
0.060606062412262
 40
0.060606062412262
 40
0.060606062412262
 40
0.060606062412262
 40
0.0909090936183929
 40
0.0909090936183929
 40
0.0909090936183929
 40
0.0909090936183929
 40
0.1212121248245239
 40
0.1212121248245239
 40
0.1212121248245239
 40
0.1212121248245239
 40
0.1515151560306549
 40
0.1515151560306549
 40
0.1515151560306549
 40
0.1515151560306549
 40
0.1818181872367859
 40
0.1818181872367859
 40
0.1818181872367859
 40
0.1818181872367859
 40
0.2121212184429169
 40
0.2121212184429169
 40
0.2121212184429169
 40
0.2121212184429169
 40
0.2424242496490479
 40
0.2424242496490479
 40
0.2424242496490479
 40
0.2424242496490479
 40
0.2727272808551788
 40
0.2727272808551788
 40
0.2727272808551788
 40
0.2727272808551788
 40
0.3030303120613098
 40
0.3030303120613098
 40
0.3030303120613098
 40
0.3030303120613098
 40
0.3333333432674408
 40
0.3333333432674408
 40
0.3333333432674408
 40
0.3333333432674408
 40
0.3636363744735718
 40
0.3636363744735718
 40
0.3636363744735718
 40
0.3636363744735718
 40
0.3939394056797028
 40
0.3939394056797028
 40
0.3939394056797028
 40
0.3939394056797028
 40
0.4242424368858337
 40
0.4242424368858337
 40
0.4242424368858337
 40
0.4242424368858337
 40
0.4545454680919647
 40
0.4545454680919647
 40
0.4545454680919647
 40
0.4545454680919647
 40
0.4848484992980957
 40
0.4848484992980957
 40
0.4848484992980957
 40
0.4848484992980957
 40
0.5151515305042267
 40
0.5151515305042267
 40
0.5151515305042267
 40
0.5151515305042267
 40
0.5454545617103577
 40
0.5454545617103577
 40
0.5454545617103577
 40
0.5454545617103577
 40
0.5757575929164887
 40
0.5757575929164887
 40
0.5757575929164887
 40
0.5757575929164887
 40
0.6060606241226196
 40
0.6060606241226196
 40
0.6060606241226196
 40
0.6060606241226196
 40
0.6363636553287506
 40
0.6363636553287506
 40
0.6363636553287506
 40
0.6363636553287506
 40
0.6666666865348816
 40
0.6666666865348816
 40
0.6666666865348816
 40
0.6666666865348816
 40
0.6969697177410126
 40
0.6969697177410126
 40
0.6969697177410126
 40
0.6969697177410126
 40
0.7272727489471436
 40
0.7272727489471436
 40
0.7272727489471436
 40
0.7272727489471436
 40
0.7575757801532745
 40
0.7575757801532745
 40
0.7575757801532745
 40
0.7575757801532745
 40
0.7878788113594055
 40
0.7878788113594055
 40
0.7878788113594055
 40
0.7878788113594055
 40
0.8181818425655365
 40
0.8181818425655365
 40
0.8181818425655365
 40
0.8181818425655365
 40
0.8484848737716675
 40
0.8484848737716675
 40
0.8484848737716675
 40
0.8484848737716675
 40
0.8787879049777985
 40
0.8787879049777985
 40
0.8787879049777985
 40
0.8787879049777985
 40
0.9090909361839294
 40
0.9090909361839294
 40
0.9090909361839294
 40
0.9090909361839294
 40
0.9393939673900604
 40
0.9393939673900604
 40
0.9393939673900604
 40
0.9393939673900604
 40
0.9696969985961914
 40
0.9696969985961914
 40
0.9696969985961914
 40
0.9696969985961914
 40
1.0
 40
1.0
 40
1.0
 40
1.0
 10
-592.21893310546875
 20
-469.08038330078125
 30
0.0
 10
-592.02392578125
 20
-469.03390502929687
 30
0.0
 10
-591.812255859375
 20
-468.9775390625
 30
0.0
 10
-591.583984375
 20
-468.91119384765625
 30
0.0
 10
-591.583984375
 20
-468.91119384765625
 30
0.0
 10
-591.5972900390625
 20
-468.62457275390625
 30
0.0
 10
-591.655029296875
 20
-468.41424560546875
 30
0.0
 10
-591.75714111328125
 20
-468.28021240234375
 30
0.0
 10
-591.75714111328125
 20
-468.28021240234375
 30
0.0
 10
-591.859375
 20
-468.14617919921875
 30
0.0
 10
-592.071044921875
 20
-468.07919311523438
 30
0.0
 10
-592.39215087890625
 20
-468.07919311523438
 30
0.0
 10
-592.39215087890625
 20
-468.07919311523438
 30
0.0
 10
-592.66815185546875
 20
-468.07919311523438
 30
0.0
 10
-592.87579345703125
 20
-468.11767578125
 30
0.0
 10
-593.01513671875
 20
-468.19461059570312
 30
0.0
 10
-593.01513671875
 20
-468.19461059570312
 30
0.0
 10
-593.1544189453125
 20
-468.27157592773437
 30
0.0
 10
-593.27392578125
 20
-468.38702392578125
 30
0.0
 10
-593.3734130859375
 20
-468.54095458984375
 30
0.0
 10
-593.3734130859375
 20
-468.54095458984375
 30
0.0
 10
-593.472900390625
 20
-468.69488525390625
 30
0.0
 10
-593.54327392578125
 20
-468.79641723632812
 30
0.0
 10
-593.5843505859375
 20
-468.84548950195312
 30
0.0
 10
-593.5843505859375
 20
-468.84548950195312
 30
0.0
 10
-593.62554931640625
 20
-468.89459228515625
 30
0.0
 10
-593.7137451171875
 20
-468.91912841796875
 30
0.0
 10
-593.84912109375
 20
-468.91912841796875
 30
0.0
 10
-593.84912109375
 20
-468.91912841796875
 30
0.0
 10
-593.97119140625
 20
-468.91912841796875
 30
0.0
 10
-594.07666015625
 20
-468.8800048828125
 30
0.0
 10
-594.16558837890625
 20
-468.80172729492187
 30
0.0
 10
-594.16558837890625
 20
-468.80172729492187
 30
0.0
 10
-594.2545166015625
 20
-468.72341918945312
 30
0.0
 10
-594.2989501953125
 20
-468.62322998046875
 30
0.0
 10
-594.2989501953125
 20
-468.50115966796875
 30
0.0
 10
-594.2989501953125
 20
-468.50115966796875
 30
0.0
 10
-594.2989501953125
 20
-468.31005859375
 30
0.0
 10
-594.23126220703125
 20
-468.12429809570312
 30
0.0
 10
-594.095947265625
 20
-467.94381713867187
 30
0.0
 10
-594.095947265625
 20
-467.94381713867187
 30
0.0
 10
-593.9605712890625
 20
-467.76336669921875
 30
0.0
 10
-593.74957275390625
 20
-467.61471557617187
 30
0.0
 10
-593.46295166015625
 20
-467.49798583984375
 30
0.0
 10
-593.46295166015625
 20
-467.49798583984375
 30
0.0
 10
-593.17633056640625
 20
-467.3812255859375
 30
0.0
 10
-592.81939697265625
 20
-467.32281494140625
 30
0.0
 10
-592.39215087890625
 20
-467.32281494140625
 30
0.0
 10
-592.39215087890625
 20
-467.32281494140625
 30
0.0
 10
-591.91436767578125
 20
-467.32281494140625
 30
0.0
 10
-591.538818359375
 20
-467.37921142578125
 30
0.0
 10
-591.26556396484375
 20
-467.49200439453125
 30
0.0
 10
-591.26556396484375
 20
-467.49200439453125
 30
0.0
 10
-590.9921875
 20
-467.60476684570312
 30
0.0
 10
-590.79913330078125
 20
-467.78329467773437
 30
0.0
 10
-590.68634033203125
 20
-468.02743530273437
 30
0.0
 10
-590.68634033203125
 20
-468.02743530273437
 30
0.0
 10
-590.57354736328125
 20
-468.27157592773437
 30
0.0
 10
-590.51708984375
 20
-468.59539794921875
 30
0.0
 10
-590.51708984375
 20
-468.99874877929687
 30
0.0
 10
-590.51708984375
 20
-468.99874877929687
 30
0.0
 10
-590.51708984375
 20
-469.25350952148437
 30
0.0
 10
-590.51776123046875
 20
-469.46981811523437
 30
0.0
 10
-590.51910400390625
 20
-469.64764404296875
 30
0.0
 10
-590.51910400390625
 20
-469.64764404296875
 30
0.0
 10
-590.5205078125
 20
-469.825439453125
 30
0.0
 10
-590.5224609375
 20
-470.02316284179687
 30
0.0
 10
-590.52508544921875
 20
-470.24078369140625
 30
0.0
 10
-590.52508544921875
 20
-470.24078369140625
 30
0.0
 10
-590.52508544921875
 20
-470.44512939453125
 30
0.0
 10
-590.49127197265625
 20
-470.65811157226562
 30
0.0
 10
-590.423583984375
 20
-470.87973022460937
 30
0.0
 10
-590.423583984375
 20
-470.87973022460937
 30
0.0
 10
-590.35589599609375
 20
-471.10134887695312
 30
0.0
 10
-590.32208251953125
 20
-471.24395751953125
 30
0.0
 10
-590.32208251953125
 20
-471.30767822265625
 30
0.0
 10
-590.32208251953125
 20
-471.30767822265625
 30
0.0
 10
-590.32208251953125
 20
-471.41912841796875
 30
0.0
 10
-590.37445068359375
 20
-471.5206298828125
 30
0.0
 10
-590.47930908203125
 20
-471.61221313476562
 30
0.0
 10
-590.47930908203125
 20
-471.61221313476562
 30
0.0
 10
-590.58416748046875
 20
-471.70376586914062
 30
0.0
 10
-590.70294189453125
 20
-471.74954223632812
 30
0.0
 10
-590.83563232421875
 20
-471.74954223632812
 30
0.0
 10
-590.83563232421875
 20
-471.74954223632812
 30
0.0
 10
-590.94708251953125
 20
-471.74954223632812
 30
0.0
 10
-591.05712890625
 20
-471.69711303710938
 30
0.0
 10
-591.166015625
 20
-471.59228515625
 30
0.0
 10
-591.166015625
 20
-471.59228515625
 30
0.0
 10
-591.27484130859375
 20
-471.48745727539062
 30
0.0
 10
-591.3902587890625
 20
-471.33554077148437
 30
0.0
 10
-591.5123291015625
 20
-471.13650512695312
 30
0.0
 10
-591.5123291015625
 20
-471.13650512695312
 30
0.0
 10
-591.77508544921875
 20
-471.3408203125
 30
0.0
 10
-592.02923583984375
 20
-471.49407958984375
 30
0.0
 10
-592.274658203125
 20
-471.59628295898437
 30
0.0
 10
-592.274658203125
 20
-471.59628295898437
 30
0.0
 10
-592.5201416015625
 20
-471.69845581054687
 30
0.0
 10
-592.7955322265625
 20
-471.74954223632812
 30
0.0
 10
-593.10076904296875
 20
-471.74954223632812
 30
0.0
 10
-593.10076904296875
 20
-471.74954223632812
 30
0.0
 10
-593.37939453125
 20
-471.74954223632812
 30
0.0
 10
-593.62420654296875
 20
-471.69448852539062
 30
0.0
 10
-593.835205078125
 20
-471.58432006835937
 30
0.0
 10
-593.835205078125
 20
-471.58432006835937
 30
0.0
 10
-594.04620361328125
 20
-471.47418212890625
 30
0.0
 10
-594.208740234375
 20
-471.32489013671875
 30
0.0
 10
-594.32281494140625
 20
-471.13650512695312
 30
0.0
 10
-594.32281494140625
 20
-471.13650512695312
 30
0.0
 10
-594.43695068359375
 20
-470.94808959960937
 30
0.0
 10
-594.4940185546875
 20
-470.74368286132812
 30
0.0
 10
-594.4940185546875
 20
-470.5234375
 30
0.0
 10
-594.4940185546875
 20
-470.5234375
 30
0.0
 10
-594.4940185546875
 20
-470.2261962890625
 30
0.0
 10
-594.39984130859375
 20
-469.97274780273437
 30
0.0
 10
-594.21136474609375
 20
-469.76309204101562
 30
0.0
 10
-594.21136474609375
 20
-469.76309204101562
 30
0.0
 10
-594.02294921875
 20
-469.55343627929687
 30
0.0
 10
-593.76416015625
 20
-469.41275024414062
 30
0.0
 10
-593.43511962890625
 20
-469.34109497070312
 30
0.0
 10
-593.43511962890625
 20
-469.34109497070312
 30
0.0
 10
-593.3660888671875
 20
-469.32516479492187
 30
0.0
 10
-593.19488525390625
 20
-469.28936767578125
 30
0.0
 10
-592.92156982421875
 20
-469.233642578125
 30
0.0
 10
-592.92156982421875
 20
-469.233642578125
 30
0.0
 10
-592.64825439453125
 20
-469.17791748046875
 30
0.0
 10
-592.41400146484375
 20
-469.12680053710937
 30
0.0
 10
-592.21893310546875
 20
-469.08038330078125
 30
0.0
 10
-592.21893310546875
 20
-469.08038330078125
 30
0.0
 10
-592.21893310546875
 20
-469.08038330078125
 30
0.0
 10
-592.21893310546875
 20
-469.08038330078125
 30
0.0
 10
-592.21893310546875
 20
-469.08038330078125
 30
0.0
  0
SPLINE
  5
3C
100
AcDbEntity
  8
layer0
 62
256
370
-1
 48
1.0
  6
BYLAYER
100
AcDbSpline
 70
8
 71
3
 72
8
 73
4
 74
0
 40
0.0
 40
0.0
 40
0.0
 40
0.0
 40
1.0
 40
1.0
 40
1.0
 40
1.0
 10
-595.23046875
 20
-468.0234375
 30
0.0
 10
-595.25433349609375
 20
-468.1163330078125
 30
0.0
 10
-595.2835693359375
 20
-468.21054077148437
 30
0.0
 10
-595.318115234375
 20
-468.30609130859375
 30
0.0
  0
LINE
  5
3D
100
AcDbEntity
  8
layer0
 62
256
370
-1
 48
1.0
  6
BYLAYER
100
AcDbLine
 10
-595.318115234375
 20
-468.30609130859375
 30
0.0
 11
-596.7352294921875
 21
-472.0162353515625
 31
0.0
  0
SPLINE
  5
3E
100
AcDbEntity
  8
layer0
 62
256
370
-1
 48
1.0
  6
BYLAYER
100
AcDbSpline
 70
8
 71
3
 72
52
 73
48
 74
0
 40
0.0
 40
0.0
 40
0.0
 40
0.0
 40
0.0833333358168602
 40
0.0833333358168602
 40
0.0833333358168602
 40
0.0833333358168602
 40
0.1666666716337204
 40
0.1666666716337204
 40
0.1666666716337204
 40
0.1666666716337204
 40
0.2500000074505806
 40
0.2500000074505806
 40
0.2500000074505806
 40
0.2500000074505806
 40
0.3333333432674408
 40
0.3333333432674408
 40
0.3333333432674408
 40
0.3333333432674408
 40
0.416666679084301
 40
0.416666679084301
 40
0.416666679084301
 40
0.416666679084301
 40
0.5000000149011612
 40
0.5000000149011612
 40
0.5000000149011612
 40
0.5000000149011612
 40
0.5833333507180214
 40
0.5833333507180214
 40
0.5833333507180214
 40
0.5833333507180214
 40
0.6666666865348816
 40
0.6666666865348816
 40
0.6666666865348816
 40
0.6666666865348816
 40
0.7500000223517418
 40
0.7500000223517418
 40
0.7500000223517418
 40
0.7500000223517418
 40
0.833333358168602
 40
0.833333358168602
 40
0.833333358168602
 40
0.833333358168602
 40
0.9166666939854622
 40
0.9166666939854622
 40
0.9166666939854622
 40
0.9166666939854622
 40
1.0
 40
1.0
 40
1.0
 40
1.0
 10
-596.7352294921875
 20
-472.0162353515625
 30
0.0
 10
-596.8572998046875
 20
-472.34271240234375
 30
0.0
 10
-596.97674560546875
 20
-472.59878540039062
 30
0.0
 10
-597.093505859375
 20
-472.78457641601562
 30
0.0
 10
-597.093505859375
 20
-472.78457641601562
 30
0.0
 10
-597.2103271484375
 20
-472.97036743164063
 30
0.0
 10
-597.3648681640625
 20
-473.11300659179687
 30
0.0
 10
-597.55731201171875
 20
-473.21249389648437
 30
0.0
 10
-597.55731201171875
 20
-473.21249389648437
 30
0.0
 10
-597.74969482421875
 20
-473.31204223632812
 30
0.0
 10
-598.0091552734375
 20
-473.36178588867187
 30
0.0
 10
-598.3355712890625
 20
-473.36178588867187
 30
0.0
 10
-598.3355712890625
 20
-473.36178588867187
 30
0.0
 10
-598.654052734375
 20
-473.36178588867187
 30
0.0
 10
-598.89288330078125
 20
-473.32730102539062
 30
0.0
 10
-599.0521240234375
 20
-473.25830078125
 30
0.0
 10
-599.0521240234375
 20
-473.25830078125
 30
0.0
 10
-599.21136474609375
 20
-473.18930053710937
 30
0.0
 10
-599.29095458984375
 20
-473.063232421875
 30
0.0
 10
-599.29095458984375
 20
-472.880126953125
 30
0.0
 10
-599.29095458984375
 20
-472.880126953125
 30
0.0
 10
-599.29095458984375
 20
-472.75540161132812
 30
0.0
 10
-599.25311279296875
 20
-472.65914916992187
 30
0.0
 10
-599.177490234375
 20
-472.59149169921875
 30
0.0
 10
-599.177490234375
 20
-472.59149169921875
 30
0.0
 10
-599.10186767578125
 20
-472.5238037109375
 30
0.0
 10
-598.98974609375
 20
-472.48995971679687
 30
0.0
 10
-598.84112548828125
 20
-472.48995971679687
 30
0.0
 10
-598.84112548828125
 20
-472.48995971679687
 30
0.0
 10
-598.78277587890625
 20
-472.48995971679687
 30
0.0
 10
-598.72564697265625
 20
-472.4979248046875
 30
0.0
 10
-598.66998291015625
 20
-472.51385498046875
 30
0.0
 10
-598.66998291015625
 20
-472.51385498046875
 30
0.0
 10
-598.6009521484375
 20
-472.52978515625
 30
0.0
 10
-598.541259765625
 20
-472.53775024414062
 30
0.0
 10
-598.4908447265625
 20
-472.53775024414062
 30
0.0
 10
-598.4908447265625
 20
-472.53775024414062
 30
0.0
 10
-598.36602783203125
 20
-472.53775024414062
 30
0.0
 10
-598.26788330078125
 20
-472.5191650390625
 30
0.0
 10
-598.19622802734375
 20
-472.48202514648437
 30
0.0
 10
-598.19622802734375
 20
-472.48202514648437
 30
0.0
 10
-598.12457275390625
 20
-472.44485473632812
 30
0.0
 10
-598.06024169921875
 20
-472.38052368164062
 30
0.0
 10
-598.00311279296875
 20
-472.2889404296875
 30
0.0
 10
-598.00311279296875
 20
-472.2889404296875
 30
0.0
 10
-597.94610595703125
 20
-472.1973876953125
 30
0.0
 10
-597.88043212890625
 20
-472.06271362304687
 30
0.0
 10
-597.80615234375
 20
-471.8848876953125
 30
0.0
  0
LWPOLYLINE
  5
3F
100
AcDbEntity
  8
layer0
 62
256
370
-1
 48
1.0
  6
BYLAYER
100
AcDbPolyline
 90
3
 70
0
 10
-597.80615234375
 20
-471.8848876953125
 10
-597.70660400390625
 20
-471.64205932617188
 10
-599.044189453125
 20
-468.27423095703125
  0
SPLINE
  5
40
100
AcDbEntity
  8
layer0
 62
256
370
-1
 48
1.0
  6
BYLAYER
100
AcDbSpline
 70
8
 71
3
 72
28
 73
24
 74
0
 40
0.0
 40
0.0
 40
0.0
 40
0.0
 40
0.1666666716337204
 40
0.1666666716337204
 40
0.1666666716337204
 40
0.1666666716337204
 40
0.3333333432674408
 40
0.3333333432674408
 40
0.3333333432674408
 40
0.3333333432674408
 40
0.5000000149011612
 40
0.5000000149011612
 40
0.5000000149011612
 40
0.5000000149011612
 40
0.6666666865348816
 40
0.6666666865348816
 40
0.6666666865348816
 40
0.6666666865348816
 40
0.833333358168602
 40
0.833333358168602
 40
0.833333358168602
 40
0.833333358168602
 40
1.0
 40
1.0
 40
1.0
 40
1.0
 10
-599.044189453125
 20
-468.27423095703125
 30
0.0
 10
-599.12640380859375
 20
-468.08050537109375
 30
0.0
 10
-599.1676025390625
 20
-467.93984985351562
 30
0.0
 10
-599.1676025390625
 20
-467.85226440429687
 30
0.0
 10
-599.1676025390625
 20
-467.85226440429687
 30
0.0
 10
-599.1676025390625
 20
-467.7593994140625
 30
0.0
 10
-599.1436767578125
 20
-467.67312622070313
 30
0.0
 10
-599.09588623046875
 20
-467.593505859375
 30
0.0
 10
-599.09588623046875
 20
-467.593505859375
 30
0.0
 10
-599.048095703125
 20
-467.51388549804687
 30
0.0
 10
-598.982421875
 20
-467.4501953125
 30
0.0
 10
-598.89886474609375
 20
-467.40243530273437
 30
0.0
 10
-598.89886474609375
 20
-467.40243530273437
 30
0.0
 10
-598.81524658203125
 20
-467.35467529296875
 30
0.0
 10
-598.72833251953125
 20
-467.33078002929687
 30
0.0
 10
-598.63812255859375
 20
-467.33078002929687
 30
0.0
 10
-598.63812255859375
 20
-467.33078002929687
 30
0.0
 10
-598.48150634765625
 20
-467.33078002929687
 30
0.0
 10
-598.36346435546875
 20
-467.38055419921875
 30
0.0
 10
-598.2838134765625
 20
-467.48004150390625
 30
0.0
 10
-598.2838134765625
 20
-467.48004150390625
 30
0.0
 10
-598.2042236328125
 20
-467.57958984375
 30
0.0
 10
-598.13385009765625
 20
-467.72222900390625
 30
0.0
 10
-598.07281494140625
 20
-467.90798950195312
 30
0.0
  0
LWPOLYLINE
  5
41
100
AcDbEntity
  8
layer0
 62
256
370
-1
 48
1.0
  6
BYLAYER
100
AcDbPolyline
 90
3
 70
0
 10
-598.07281494140625
 20
-467.90798950195312
 10
-597.15325927734375
 20
-470.58316040039062
 10
-596.28143310546875
 20
-468.09512329101562
  0
SPLINE
  5
42
100
AcDbEntity
  8
layer0
 62
256
370
-1
 48
1.0
  6
BYLAYER
100
AcDbSpline
 70
8
 71
3
 72
36
 73
32
 74
0
 40
0.0
 40
0.0
 40
0.0
 40
0.0
 40
0.125
 40
0.125
 40
0.125
 40
0.125
 40
0.25
 40
0.25
 40
0.25
 40
0.25
 40
0.375
 40
0.375
 40
0.375
 40
0.375
 40
0.5
 40
0.5
 40
0.5
 40
0.5
 40
0.625
 40
0.625
 40
0.625
 40
0.625
 40
0.75
 40
0.75
 40
0.75
 40
0.75
 40
0.875
 40
0.875
 40
0.875
 40
0.875
 40
1.0
 40
1.0
 40
1.0
 40
1.0
 10
-596.28143310546875
 20
-468.09512329101562
 30
0.0
 10
-596.21246337890625
 20
-467.89337158203125
 30
0.0
 10
-596.15008544921875
 20
-467.73550415039062
 30
0.0
 10
-596.09429931640625
 20
-467.62139892578125
 30
0.0
 10
-596.09429931640625
 20
-467.62139892578125
 30
0.0
 10
-596.03863525390625
 20
-467.50723266601562
 30
0.0
 10
-595.97955322265625
 20
-467.4302978515625
 30
0.0
 10
-595.91717529296875
 20
-467.39047241210937
 30
0.0
 10
-595.91717529296875
 20
-467.39047241210937
 30
0.0
 10
-595.85479736328125
 20
-467.35067749023437
 30
0.0
 10
-595.76654052734375
 20
-467.33078002929687
 30
0.0
 10
-595.6524658203125
 20
-467.33078002929687
 30
0.0
 10
-595.6524658203125
 20
-467.33078002929687
 30
0.0
 10
-595.5701904296875
 20
-467.33078002929687
 30
0.0
 10
-595.49127197265625
 20
-467.3526611328125
 30
0.0
 10
-595.41558837890625
 20
-467.39645385742187
 30
0.0
 10
-595.41558837890625
 20
-467.39645385742187
 30
0.0
 10
-595.3399658203125
 20
-467.44024658203125
 30
0.0
 10
-595.28155517578125
 20
-467.499267578125
 30
0.0
 10
-595.24041748046875
 20
-467.5736083984375
 30
0.0
 10
-595.24041748046875
 20
-467.5736083984375
 30
0.0
 10
-595.19927978515625
 20
-467.64794921875
 30
0.0
 10
-595.1787109375
 20
-467.7261962890625
 30
0.0
 10
-595.1787109375
 20
-467.8084716796875
 30
0.0
 10
-595.1787109375
 20
-467.8084716796875
 30
0.0
 10
-595.1893310546875
 20
-467.85891723632812
 30
0.0
 10
-595.20654296875
 20
-467.9305419921875
 30
0.0
 10
-595.23046875
 20
-468.0234375
 30
0.0
 10
-595.23046875
 20
-468.0234375
 30
0.0
 10
-595.23046875
 20
-468.0234375
 30
0.0
 10
-595.23046875
 20
-468.0234375
 30
0.0
 10
-595.23046875
 20
-468.0234375
 30
0.0
  0
SPLINE
  5
43
100
AcDbEntity
  8
layer0
 62
256
370
-1
 48
1.0
  6
BYLAYER
100
AcDbSpline
 70
8
 71
3
 72
36
 73
32
 74
0
 40
0.0
 40
0.0
 40
0.0
 40
0.0
 40
0.125
 40
0.125
 40
0.125
 40
0.125
 40
0.25
 40
0.25
 40
0.25
 40
0.25
 40
0.375
 40
0.375
 40
0.375
 40
0.375
 40
0.5
 40
0.5
 40
0.5
 40
0.5
 40
0.625
 40
0.625
 40
0.625
 40
0.625
 40
0.75
 40
0.75
 40
0.75
 40
0.75
 40
0.875
 40
0.875
 40
0.875
 40
0.875
 40
1.0
 40
1.0
 40
1.0
 40
1.0
 10
-599.50994873046875
 20
-467.95578002929687
 30
0.0
 10
-599.50994873046875
 20
-468.08843994140625
 30
0.0
 10
-599.55572509765625
 20
-468.19790649414062
 30
0.0
 10
-599.64727783203125
 20
-468.2841796875
 30
0.0
 10
-599.64727783203125
 20
-468.2841796875
 30
0.0
 10
-599.73883056640625
 20
-468.37045288085937
 30
0.0
 10
-599.837646484375
 20
-468.41357421875
 30
0.0
 10
-599.94378662109375
 20
-468.41357421875
 30
0.0
 10
-599.94378662109375
 20
-468.41357421875
 30
0.0
 10
-599.983642578125
 20
-468.41357421875
 30
0.0
 10
-600.079833984375
 20
-468.38900756835937
 30
0.0
 10
-600.23248291015625
 20
-468.33993530273437
 30
0.0
 10
-600.23248291015625
 20
-468.33993530273437
 30
0.0
 10
-600.38507080078125
 20
-468.29083251953125
 30
0.0
 10
-600.51971435546875
 20
-468.26626586914062
 30
0.0
 10
-600.636474609375
 20
-468.26626586914062
 30
0.0
 10
-600.636474609375
 20
-468.26626586914062
 30
0.0
 10
-600.79571533203125
 20
-468.26626586914062
 30
0.0
 10
-600.92578125
 20
-468.30807495117187
 30
0.0
 10
-601.026611328125
 20
-468.39169311523437
 30
0.0
 10
-601.026611328125
 20
-468.39169311523437
 30
0.0
 10
-601.12750244140625
 20
-468.47528076171875
 30
0.0
 10
-601.20574951171875
 20
-468.59933471679687
 30
0.0
 10
-601.261474609375
 20
-468.76388549804687
 30
0.0
 10
-601.261474609375
 20
-468.76388549804687
 30
0.0
 10
-601.3172607421875
 20
-468.92843627929687
 30
0.0
 10
-601.355712890625
 20
-469.1241455078125
 30
0.0
 10
-601.376953125
 20
-469.35107421875
 30
0.0
 10
-601.376953125
 20
-469.35107421875
 30
0.0
 10
-601.398193359375
 20
-469.57797241210937
 30
0.0
 10
-601.40875244140625
 20
-469.85464477539062
 30
0.0
 10
-601.40875244140625
 20
-470.18109130859375
 30
0.0
  0
LINE
  5
44
100
AcDbEntity
  8
layer0
 62
256
370
-1
 48
1.0
  6
BYLAYER
100
AcDbLine
 10
-601.40875244140625
 20
-470.18109130859375
 30
0.0
 11
-601.40875244140625
 21
-471.08871459960937
 31
0.0
  0
SPLINE
  5
45
100
AcDbEntity
  8
layer0
 62
256
370
-1
 48
1.0
  6
BYLAYER
100
AcDbSpline
 70
8
 71
3
 72
20
 73
16
 74
0
 40
0.0
 40
0.0
 40
0.0
 40
0.0
 40
0.25
 40
0.25
 40
0.25
 40
0.25
 40
0.5
 40
0.5
 40
0.5
 40
0.5
 40
0.75
 40
0.75
 40
0.75
 40
0.75
 40
1.0
 40
1.0
 40
1.0
 40
1.0
 10
-601.40875244140625
 20
-471.08871459960937
 30
0.0
 10
-601.40875244140625
 20
-471.30899047851562
 30
0.0
 10
-601.4605712890625
 20
-471.47418212890625
 30
0.0
 10
-601.5640869140625
 20
-471.58432006835937
 30
0.0
 10
-601.5640869140625
 20
-471.58432006835937
 30
0.0
 10
-601.66754150390625
 20
-471.69448852539062
 30
0.0
 10
-601.7989501953125
 20
-471.74954223632812
 30
0.0
 10
-601.9581298828125
 20
-471.74954223632812
 30
0.0
 10
-601.9581298828125
 20
-471.74954223632812
 30
0.0
 10
-602.11474609375
 20
-471.74954223632812
 30
0.0
 10
-602.243408203125
 20
-471.69378662109375
 30
0.0
 10
-602.34429931640625
 20
-471.58233642578125
 30
0.0
 10
-602.34429931640625
 20
-471.58233642578125
 30
0.0
 10
-602.4451904296875
 20
-471.47088623046875
 30
0.0
 10
-602.49560546875
 20
-471.30633544921875
 30
0.0
 10
-602.49560546875
 20
-471.08871459960937
 30
0.0
  0
LINE
  5
46
100
AcDbEntity
  8
layer0
 62
256
370
-1
 48
1.0
  6
BYLAYER
100
AcDbLine
 10
-602.49560546875
 20
-471.08871459960937
 30
0.0
 11
-602.49560546875
 21
-468.06326293945312
 31
0.0
  0
SPLINE
  5
47
100
AcDbEntity
  8
layer0
 62
256
370
-1
 48
1.0
  6
BYLAYER
100
AcDbSpline
 70
8
 71
3
 72
36
 73
32
 74
0
 40
0.0
 40
0.0
 40
0.0
 40
0.0
 40
0.125
 40
0.125
 40
0.125
 40
0.125
 40
0.25
 40
0.25
 40
0.25
 40
0.25
 40
0.375
 40
0.375
 40
0.375
 40
0.375
 40
0.5
 40
0.5
 40
0.5
 40
0.5
 40
0.625
 40
0.625
 40
0.625
 40
0.625
 40
0.75
 40
0.75
 40
0.75
 40
0.75
 40
0.875
 40
0.875
 40
0.875
 40
0.875
 40
1.0
 40
1.0
 40
1.0
 40
1.0
 10
-602.49560546875
 20
-468.06326293945312
 30
0.0
 10
-602.49560546875
 20
-467.57492065429687
 30
0.0
 10
-602.31903076171875
 20
-467.33078002929687
 30
0.0
 10
-601.96612548828125
 20
-467.33078002929687
 30
0.0
 10
-601.96612548828125
 20
-467.33078002929687
 30
0.0
 10
-601.78564453125
 20
-467.33078002929687
 30
0.0
 10
-601.6556396484375
 20
-467.3878173828125
 30
0.0
 10
-601.57598876953125
 20
-467.501953125
 30
0.0
 10
-601.57598876953125
 20
-467.501953125
 30
0.0
 10
-601.49639892578125
 20
-467.6160888671875
 30
0.0
 10
-601.45263671875
 20
-467.78457641601562
 30
0.0
 10
-601.44464111328125
 20
-468.00750732421875
 30
0.0
 10
-601.44464111328125
 20
-468.00750732421875
 30
0.0
 10
-601.3145751953125
 20
-467.78457641601562
 30
0.0
 10
-601.1812744140625
 20
-467.6160888671875
 30
0.0
 10
-601.0445556640625
 20
-467.501953125
 30
0.0
 10
-601.0445556640625
 20
-467.501953125
 30
0.0
 10
-600.9078369140625
 20
-467.3878173828125
 30
0.0
 10
-600.72540283203125
 20
-467.33078002929687
 30
0.0
 10
-600.4971923828125
 20
-467.33078002929687
 30
0.0
 10
-600.4971923828125
 20
-467.33078002929687
 30
0.0
 10
-600.2689208984375
 20
-467.33078002929687
 30
0.0
 10
-600.04736328125
 20
-467.3878173828125
 30
0.0
 10
-599.83233642578125
 20
-467.501953125
 30
0.0
 10
-599.83233642578125
 20
-467.501953125
 30
0.0
 10
-599.617431640625
 20
-467.6160888671875
 30
0.0
 10
-599.50994873046875
 20
-467.76736450195312
 30
0.0
 10
-599.50994873046875
 20
-467.95578002929687
 30
0.0
 10
-599.50994873046875
 20
-467.95578002929687
 30
0.0
 10
-599.50994873046875
 20
-467.95578002929687
 30
0.0
 10
-599.50994873046875
 20
-467.95578002929687
 30
0.0
 10
-599.50994873046875
 20
-467.95578002929687
 30
0.0
  0
SPLINE
  5
48
100
AcDbEntity
  8
layer0
 62
256
370
-1
 48
1.0
  6
BYLAYER
100
AcDbSpline
 70
8
 71
3
 72
40
 73
36
 74
0
 40
0.0
 40
0.0
 40
0.0
 40
0.0
 40
0.1111111119389534
 40
0.1111111119389534
 40
0.1111111119389534
 40
0.1111111119389534
 40
0.2222222238779068
 40
0.2222222238779068
 40
0.2222222238779068
 40
0.2222222238779068
 40
0.3333333358168602
 40
0.3333333358168602
 40
0.3333333358168602
 40
0.3333333358168602
 40
0.4444444477558136
 40
0.4444444477558136
 40
0.4444444477558136
 40
0.4444444477558136
 40
0.555555559694767
 40
0.555555559694767
 40
0.555555559694767
 40
0.555555559694767
 40
0.6666666716337204
 40
0.6666666716337204
 40
0.6666666716337204
 40
0.6666666716337204
 40
0.7777777835726738
 40
0.7777777835726738
 40
0.7777777835726738
 40
0.7777777835726738
 40
0.8888888955116272
 40
0.8888888955116272
 40
0.8888888955116272
 40
0.8888888955116272
 40
1.0
 40
1.0
 40
1.0
 40
1.0
 10
-604.80450439453125
 20
-469.56405639648437
 30
0.0
 10
-604.9637451171875
 20
-469.6224365234375
 30
0.0
 10
-605.19525146484375
 20
-469.68414306640625
 30
0.0
 10
-605.4991455078125
 20
-469.74917602539062
 30
0.0
 10
-605.4991455078125
 20
-469.74917602539062
 30
0.0
 10
-605.80303955078125
 20
-469.81414794921875
 30
0.0
 10
-606.0133056640625
 20
-469.8619384765625
 30
0.0
 10
-606.13006591796875
 20
-469.8924560546875
 30
0.0
 10
-606.13006591796875
 20
-469.8924560546875
 30
0.0
 10
-606.24688720703125
 20
-469.9229736328125
 30
0.0
 10
-606.35833740234375
 20
-469.98269653320312
 30
0.0
 10
-606.46453857421875
 20
-470.07159423828125
 30
0.0
 10
-606.46453857421875
 20
-470.07159423828125
 30
0.0
 10
-606.5706787109375
 20
-470.16049194335937
 30
0.0
 10
-606.623779296875
 20
-470.28457641601562
 30
0.0
 10
-606.623779296875
 20
-470.44381713867187
 30
0.0
 10
-606.623779296875
 20
-470.44381713867187
 30
0.0
 10
-606.623779296875
 20
-470.60833740234375
 30
0.0
 10
-606.5614013671875
 20
-470.74835205078125
 30
0.0
 10
-606.4366455078125
 20
-470.86380004882812
 30
0.0
 10
-606.4366455078125
 20
-470.86380004882812
 30
0.0
 10
-606.3118896484375
 20
-470.97921752929687
 30
0.0
 10
-606.148681640625
 20
-471.03695678710937
 30
0.0
 10
-605.947021484375
 20
-471.03695678710937
 30
0.0
 10
-605.947021484375
 20
-471.03695678710937
 30
0.0
 10
-605.73199462890625
 20
-471.03695678710937
 30
0.0
 10
-605.53363037109375
 20
-470.9898681640625
 30
0.0
 10
-605.35186767578125
 20
-470.89566040039062
 30
0.0
 10
-605.35186767578125
 20
-470.89566040039062
 30
0.0
 10
-605.1700439453125
 20
-470.80142211914062
 30
0.0
 10
-605.0367431640625
 20
-470.67999267578125
 30
0.0
 10
-604.9517822265625
 20
-470.53140258789062
 30
0.0
 10
-604.9517822265625
 20
-470.53140258789062
 30
0.0
 10
-604.85357666015625
 20
-470.36685180664062
 30
0.0
 10
-604.80450439453125
 20
-470.09616088867187
 30
0.0
 10
-604.80450439453125
 20
-469.71929931640625
 30
0.0
  0
LINE
  5
49
100
AcDbEntity
  8
layer0
 62
256
370
-1
 48
1.0
  6
BYLAYER
100
AcDbLine
 10
-604.80450439453125
 20
-469.71929931640625
 30
0.0
 11
-604.80450439453125
 21
-469.56405639648437
 31
0.0
  0
SPLINE
  5
4A
100
AcDbEntity
  8
layer0
 62
256
370
-1
 48
1.0
  6
BYLAYER
100
AcDbSpline
 70
8
 71
3
 72
136
 73
132
 74
0
 40
0.0
 40
0.0
 40
0.0
 40
0.0
 40
0.030303031206131
 40
0.030303031206131
 40
0.030303031206131
 40
0.030303031206131
 40
0.060606062412262
 40
0.060606062412262
 40
0.060606062412262
 40
0.060606062412262
 40
0.0909090936183929
 40
0.0909090936183929
 40
0.0909090936183929
 40
0.0909090936183929
 40
0.1212121248245239
 40
0.1212121248245239
 40
0.1212121248245239
 40
0.1212121248245239
 40
0.1515151560306549
 40
0.1515151560306549
 40
0.1515151560306549
 40
0.1515151560306549
 40
0.1818181872367859
 40
0.1818181872367859
 40
0.1818181872367859
 40
0.1818181872367859
 40
0.2121212184429169
 40
0.2121212184429169
 40
0.2121212184429169
 40
0.2121212184429169
 40
0.2424242496490479
 40
0.2424242496490479
 40
0.2424242496490479
 40
0.2424242496490479
 40
0.2727272808551788
 40
0.2727272808551788
 40
0.2727272808551788
 40
0.2727272808551788
 40
0.3030303120613098
 40
0.3030303120613098
 40
0.3030303120613098
 40
0.3030303120613098
 40
0.3333333432674408
 40
0.3333333432674408
 40
0.3333333432674408
 40
0.3333333432674408
 40
0.3636363744735718
 40
0.3636363744735718
 40
0.3636363744735718
 40
0.3636363744735718
 40
0.3939394056797028
 40
0.3939394056797028
 40
0.3939394056797028
 40
0.3939394056797028
 40
0.4242424368858337
 40
0.4242424368858337
 40
0.4242424368858337
 40
0.4242424368858337
 40
0.4545454680919647
 40
0.4545454680919647
 40
0.4545454680919647
 40
0.4545454680919647
 40
0.4848484992980957
 40
0.4848484992980957
 40
0.4848484992980957
 40
0.4848484992980957
 40
0.5151515305042267
 40
0.5151515305042267
 40
0.5151515305042267
 40
0.5151515305042267
 40
0.5454545617103577
 40
0.5454545617103577
 40
0.5454545617103577
 40
0.5454545617103577
 40
0.5757575929164887
 40
0.5757575929164887
 40
0.5757575929164887
 40
0.5757575929164887
 40
0.6060606241226196
 40
0.6060606241226196
 40
0.6060606241226196
 40
0.6060606241226196
 40
0.6363636553287506
 40
0.6363636553287506
 40
0.6363636553287506
 40
0.6363636553287506
 40
0.6666666865348816
 40
0.6666666865348816
 40
0.6666666865348816
 40
0.6666666865348816
 40
0.6969697177410126
 40
0.6969697177410126
 40
0.6969697177410126
 40
0.6969697177410126
 40
0.7272727489471436
 40
0.7272727489471436
 40
0.7272727489471436
 40
0.7272727489471436
 40
0.7575757801532745
 40
0.7575757801532745
 40
0.7575757801532745
 40
0.7575757801532745
 40
0.7878788113594055
 40
0.7878788113594055
 40
0.7878788113594055
 40
0.7878788113594055
 40
0.8181818425655365
 40
0.8181818425655365
 40
0.8181818425655365
 40
0.8181818425655365
 40
0.8484848737716675
 40
0.8484848737716675
 40
0.8484848737716675
 40
0.8484848737716675
 40
0.8787879049777985
 40
0.8787879049777985
 40
0.8787879049777985
 40
0.8787879049777985
 40
0.9090909361839294
 40
0.9090909361839294
 40
0.9090909361839294
 40
0.9090909361839294
 40
0.9393939673900604
 40
0.9393939673900604
 40
0.9393939673900604
 40
0.9393939673900604
 40
0.9696969985961914
 40
0.9696969985961914
 40
0.9696969985961914
 40
0.9696969985961914
 40
1.0
 40
1.0
 40
1.0
 40
1.0
 10
-605.43939208984375
 20
-469.08038330078125
 30
0.0
 10
-605.24432373046875
 20
-469.03390502929687
 30
0.0
 10
-605.03271484375
 20
-468.9775390625
 30
0.0
 10
-604.80450439453125
 20
-468.91119384765625
 30
0.0
 10
-604.80450439453125
 20
-468.91119384765625
 30
0.0
 10
-604.8177490234375
 20
-468.62457275390625
 30
0.0
 10
-604.87548828125
 20
-468.41424560546875
 30
0.0
 10
-604.9776611328125
 20
-468.28021240234375
 30
0.0
 10
-604.9776611328125
 20
-468.28021240234375
 30
0.0
 10
-605.07977294921875
 20
-468.14617919921875
 30
0.0
 10
-605.29150390625
 20
-468.07919311523438
 30
0.0
 10
-605.61260986328125
 20
-468.07919311523438
 30
0.0
 10
-605.61260986328125
 20
-468.07919311523438
 30
0.0
 10
-605.88861083984375
 20
-468.07919311523438
 30
0.0
 10
-606.09625244140625
 20
-468.11767578125
 30
0.0
 10
-606.235595703125
 20
-468.19461059570312
 30
0.0
 10
-606.235595703125
 20
-468.19461059570312
 30
0.0
 10
-606.37493896484375
 20
-468.27157592773437
 30
0.0
 10
-606.494384765625
 20
-468.38702392578125
 30
0.0
 10
-606.5938720703125
 20
-468.54095458984375
 30
0.0
 10
-606.5938720703125
 20
-468.54095458984375
 30
0.0
 10
-606.693359375
 20
-468.69488525390625
 30
0.0
 10
-606.76373291015625
 20
-468.79641723632812
 30
0.0
 10
-606.80487060546875
 20
-468.84548950195312
 30
0.0
 10
-606.80487060546875
 20
-468.84548950195312
 30
0.0
 10
-606.84600830078125
 20
-468.89459228515625
 30
0.0
 10
-606.9342041015625
 20
-468.91912841796875
 30
0.0
 10
-607.069580078125
 20
-468.91912841796875
 30
0.0
 10
-607.069580078125
 20
-468.91912841796875
 30
0.0
 10
-607.191650390625
 20
-468.91912841796875
 30
0.0
 10
-607.297119140625
 20
-468.8800048828125
 30
0.0
 10
-607.38604736328125
 20
-468.80172729492187
 30
0.0
 10
-607.38604736328125
 20
-468.80172729492187
 30
0.0
 10
-607.4749755859375
 20
-468.72341918945312
 30
0.0
 10
-607.51947021484375
 20
-468.62322998046875
 30
0.0
 10
-607.51947021484375
 20
-468.50115966796875
 30
0.0
 10
-607.51947021484375
 20
-468.50115966796875
 30
0.0
 10
-607.51947021484375
 20
-468.31005859375
 30
0.0
 10
-607.4517822265625
 20
-468.12429809570312
 30
0.0
 10
-607.31640625
 20
-467.94381713867187
 30
0.0
 10
-607.31640625
 20
-467.94381713867187
 30
0.0
 10
-607.18109130859375
 20
-467.76336669921875
 30
0.0
 10
-606.9700927734375
 20
-467.61471557617187
 30
0.0
 10
-606.6834716796875
 20
-467.49798583984375
 30
0.0
 10
-606.6834716796875
 20
-467.49798583984375
 30
0.0
 10
-606.3968505859375
 20
-467.3812255859375
 30
0.0
 10
-606.03985595703125
 20
-467.32281494140625
 30
0.0
 10
-605.61260986328125
 20
-467.32281494140625
 30
0.0
 10
-605.61260986328125
 20
-467.32281494140625
 30
0.0
 10
-605.1348876953125
 20
-467.32281494140625
 30
0.0
 10
-604.75933837890625
 20
-467.37921142578125
 30
0.0
 10
-604.48602294921875
 20
-467.49200439453125
 30
0.0
 10
-604.48602294921875
 20
-467.49200439453125
 30
0.0
 10
-604.212646484375
 20
-467.60476684570312
 30
0.0
 10
-604.01959228515625
 20
-467.78329467773437
 30
0.0
 10
-603.90679931640625
 20
-468.02743530273437
 30
0.0
 10
-603.90679931640625
 20
-468.02743530273437
 30
0.0
 10
-603.7939453125
 20
-468.27157592773437
 30
0.0
 10
-603.73760986328125
 20
-468.59539794921875
 30
0.0
 10
-603.73760986328125
 20
-468.99874877929687
 30
0.0
 10
-603.73760986328125
 20
-468.99874877929687
 30
0.0
 10
-603.73760986328125
 20
-469.25350952148437
 30
0.0
 10
-603.73828125
 20
-469.46981811523437
 30
0.0
 10
-603.73956298828125
 20
-469.64764404296875
 30
0.0
 10
-603.73956298828125
 20
-469.64764404296875
 30
0.0
 10
-603.74090576171875
 20
-469.825439453125
 30
0.0
 10
-603.742919921875
 20
-470.02316284179687
 30
0.0
 10
-603.74560546875
 20
-470.24078369140625
 30
0.0
 10
-603.74560546875
 20
-470.24078369140625
 30
0.0
 10
-603.74560546875
 20
-470.44512939453125
 30
0.0
 10
-603.71173095703125
 20
-470.65811157226562
 30
0.0
 10
-603.64404296875
 20
-470.87973022460937
 30
0.0
 10
-603.64404296875
 20
-470.87973022460937
 30
0.0
 10
-603.57635498046875
 20
-471.10134887695312
 30
0.0
 10
-603.54254150390625
 20
-471.24395751953125
 30
0.0
 10
-603.54254150390625
 20
-471.30767822265625
 30
0.0
 10
-603.54254150390625
 20
-471.30767822265625
 30
0.0
 10
-603.54254150390625
 20
-471.41912841796875
 30
0.0
 10
-603.594970703125
 20
-471.5206298828125
 30
0.0
 10
-603.6998291015625
 20
-471.61221313476562
 30
0.0
 10
-603.6998291015625
 20
-471.61221313476562
 30
0.0
 10
-603.80462646484375
 20
-471.70376586914062
 30
0.0
 10
-603.92333984375
 20
-471.74954223632812
 30
0.0
 10
-604.0560302734375
 20
-471.74954223632812
 30
0.0
 10
-604.0560302734375
 20
-471.74954223632812
 30
0.0
 10
-604.16754150390625
 20
-471.74954223632812
 30
0.0
 10
-604.27764892578125
 20
-471.69711303710938
 30
0.0
 10
-604.386474609375
 20
-471.59228515625
 30
0.0
 10
-604.386474609375
 20
-471.59228515625
 30
0.0
 10
-604.49530029296875
 20
-471.48745727539062
 30
0.0
 10
-604.6107177734375
 20
-471.33554077148437
 30
0.0
 10
-604.7327880859375
 20
-471.13650512695312
 30
0.0
 10
-604.7327880859375
 20
-471.13650512695312
 30
0.0
 10
-604.99554443359375
 20
-471.3408203125
 30
0.0
 10
-605.24969482421875
 20
-471.49407958984375
 30
0.0
 10
-605.49517822265625
 20
-471.59628295898437
 30
0.0
 10
-605.49517822265625
 20
-471.59628295898437
 30
0.0
 10
-605.7406005859375
 20
-471.69845581054687
 30
0.0
 10
-606.01605224609375
 20
-471.74954223632812
 30
0.0
 10
-606.3211669921875
 20
-471.74954223632812
 30
0.0
 10
-606.3211669921875
 20
-471.74954223632812
 30
0.0
 10
-606.599853515625
 20
-471.74954223632812
 30
0.0
 10
-606.84466552734375
 20
-471.69448852539062
 30
0.0
 10
-607.0556640625
 20
-471.58432006835937
 30
0.0
 10
-607.0556640625
 20
-471.58432006835937
 30
0.0
 10
-607.26666259765625
 20
-471.47418212890625
 30
0.0
 10
-607.42926025390625
 20
-471.32489013671875
 30
0.0
 10
-607.54327392578125
 20
-471.13650512695312
 30
0.0
 10
-607.54327392578125
 20
-471.13650512695312
 30
0.0
 10
-607.65740966796875
 20
-470.94808959960937
 30
0.0
 10
-607.71453857421875
 20
-470.74368286132812
 30
0.0
 10
-607.71453857421875
 20
-470.5234375
 30
0.0
 10
-607.71453857421875
 20
-470.5234375
 30
0.0
 10
-607.71453857421875
 20
-470.2261962890625
 30
0.0
 10
-607.62030029296875
 20
-469.97274780273437
 30
0.0
 10
-607.43182373046875
 20
-469.76309204101562
 30
0.0
 10
-607.43182373046875
 20
-469.76309204101562
 30
0.0
 10
-607.243408203125
 20
-469.55343627929687
 30
0.0
 10
-606.98468017578125
 20
-469.41275024414062
 30
0.0
 10
-606.65557861328125
 20
-469.34109497070312
 30
0.0
 10
-606.65557861328125
 20
-469.34109497070312
 30
0.0
 10
-606.58660888671875
 20
-469.32516479492187
 30
0.0
 10
-606.41534423828125
 20
-469.28936767578125
 30
0.0
 10
-606.14208984375
 20
-469.233642578125
 30
0.0
 10
-606.14208984375
 20
-469.233642578125
 30
0.0
 10
-605.86871337890625
 20
-469.17791748046875
 30
0.0
 10
-605.63446044921875
 20
-469.12680053710937
 30
0.0
 10
-605.43939208984375
 20
-469.08038330078125
 30
0.0
 10
-605.43939208984375
 20
-469.08038330078125
 30
0.0
 10
-605.43939208984375
 20
-469.08038330078125
 30
0.0
 10
-605.43939208984375
 20
-469.08038330078125
 30
0.0
 10
-605.43939208984375
 20
-469.08038330078125
 30
0.0
  0
LWPOLYLINE
  5
4B
100
AcDbEntity
  8
layer0
 62
256
370
-1
 48
1.0
  6
BYLAYER
100
AcDbPolyline
 90
4
 70
0
 10
-610.3060302734375
 20
-469.36898803710937
 10
-611.18585205078125
 20
-466.96054077148437
 10
-612.0496826171875
 20
-469.36898803710937
 10
-610.3060302734375
 20
-469.36898803710937
  0
LWPOLYLINE
  5
4C
100
AcDbEntity
  8
layer0
 62
256
370
-1
 48
1.0
  6
BYLAYER
100
AcDbPolyline
 90
3
 70
0
 10
-609.987548828125
 20
-470.2567138671875
 10
-612.36016845703125
 20
-470.2567138671875
 10
-612.63885498046875
 20
-471.00509643554687
  0
SPLINE
  5
4D
100
AcDbEntity
  8
layer0
 62
256
370
-1
 48
1.0
  6
BYLAYER
100
AcDbSpline
 70
8
 71
3
 72
28
 73
24
 74
0
 40
0.0
 40
0.0
 40
0.0
 40
0.0
 40
0.1666666716337204
 40
0.1666666716337204
 40
0.1666666716337204
 40
0.1666666716337204
 40
0.3333333432674408
 40
0.3333333432674408
 40
0.3333333432674408
 40
0.3333333432674408
 40
0.5000000149011612
 40
0.5000000149011612
 40
0.5000000149011612
 40
0.5000000149011612
 40
0.6666666865348816
 40
0.6666666865348816
 40
0.6666666865348816
 40
0.6666666865348816
 40
0.833333358168602
 40
0.833333358168602
 40
0.833333358168602
 40
0.833333358168602
 40
1.0
 40
1.0
 40
1.0
 40
1.0
 10
-612.63885498046875
 20
-471.00509643554687
 30
0.0
 10
-612.7476806640625
 20
-471.29705810546875
 30
0.0
 10
-612.84051513671875
 20
-471.49407958984375
 30
0.0
 10
-612.91748046875
 20
-471.59628295898437
 30
0.0
 10
-612.91748046875
 20
-471.59628295898437
 30
0.0
 10
-612.99444580078125
 20
-471.69845581054687
 30
0.0
 10
-613.12054443359375
 20
-471.74954223632812
 30
0.0
 10
-613.295654296875
 20
-471.74954223632812
 30
0.0
 10
-613.295654296875
 20
-471.74954223632812
 30
0.0
 10
-613.44427490234375
 20
-471.74954223632812
 30
0.0
 10
-613.57568359375
 20
-471.69512939453125
 30
0.0
 10
-613.6898193359375
 20
-471.58633422851562
 30
0.0
 10
-613.6898193359375
 20
-471.58633422851562
 30
0.0
 10
-613.80389404296875
 20
-471.4775390625
 30
0.0
 10
-613.8609619140625
 20
-471.3541259765625
 30
0.0
 10
-613.8609619140625
 20
-471.21609497070312
 30
0.0
 10
-613.8609619140625
 20
-471.21609497070312
 30
0.0
 10
-613.8609619140625
 20
-471.13650512695312
 30
0.0
 10
-613.84771728515625
 20
-471.05419921875
 30
0.0
 10
-613.82110595703125
 20
-470.96929931640625
 30
0.0
 10
-613.82110595703125
 20
-470.96929931640625
 30
0.0
 10
-613.79461669921875
 20
-470.8843994140625
 30
0.0
 10
-613.7508544921875
 20
-470.76626586914062
 30
0.0
 10
-613.6898193359375
 20
-470.614990234375
 30
0.0
  0
LINE
  5
4E
100
AcDbEntity
  8
layer0
 62
256
370
-1
 48
1.0
  6
BYLAYER
100
AcDbLine
 10
-613.6898193359375
 20
-470.614990234375
 30
0.0
 11
-612.19696044921875
 21
-466.8251953125
 31
0.0
  0
SPLINE
  5
4F
100
AcDbEntity
  8
layer0
 62
256
370
-1
 48
1.0
  6
BYLAYER
100
AcDbSpline
 70
8
 71
3
 72
36
 73
32
 74
0
 40
0.0
 40
0.0
 40
0.0
 40
0.0
 40
0.125
 40
0.125
 40
0.125
 40
0.125
 40
0.25
 40
0.25
 40
0.25
 40
0.25
 40
0.375
 40
0.375
 40
0.375
 40
0.375
 40
0.5
 40
0.5
 40
0.5
 40
0.5
 40
0.625
 40
0.625
 40
0.625
 40
0.625
 40
0.75
 40
0.75
 40
0.75
 40
0.75
 40
0.875
 40
0.875
 40
0.875
 40
0.875
 40
1.0
 40
1.0
 40
1.0
 40
1.0
 10
-612.19696044921875
 20
-466.8251953125
 30
0.0
 10
-612.154541015625
 20
-466.71640014648437
 30
0.0
 10
-612.1033935546875
 20
-466.58566284179687
 30
0.0
 10
-612.043701171875
 20
-466.43310546875
 30
0.0
 10
-612.043701171875
 20
-466.43310546875
 30
0.0
 10
-611.9840087890625
 20
-466.28048706054687
 30
0.0
 10
-611.9202880859375
 20
-466.15374755859375
 30
0.0
 10
-611.85260009765625
 20
-466.05291748046875
 30
0.0
 10
-611.85260009765625
 20
-466.05291748046875
 30
0.0
 10
-611.784912109375
 20
-465.95208740234375
 30
0.0
 10
-611.69598388671875
 20
-465.87045288085937
 30
0.0
 10
-611.5859375
 20
-465.80807495117187
 30
0.0
 10
-611.5859375
 20
-465.80807495117187
 30
0.0
 10
-611.47576904296875
 20
-465.7457275390625
 30
0.0
 10
-611.3397216796875
 20
-465.71453857421875
 30
0.0
 10
-611.1778564453125
 20
-465.71453857421875
 30
0.0
 10
-611.1778564453125
 20
-465.71453857421875
 30
0.0
 10
-611.0133056640625
 20
-465.71453857421875
 30
0.0
 10
-610.8759765625
 20
-465.7457275390625
 30
0.0
 10
-610.765869140625
 20
-465.80807495117187
 30
0.0
 10
-610.765869140625
 20
-465.80807495117187
 30
0.0
 10
-610.65570068359375
 20
-465.87045288085937
 30
0.0
 10
-610.5667724609375
 20
-465.95071411132812
 30
0.0
 10
-610.49908447265625
 20
-466.04891967773437
 30
0.0
 10
-610.49908447265625
 20
-466.04891967773437
 30
0.0
 10
-610.43145751953125
 20
-466.14712524414062
 30
0.0
 10
-610.3743896484375
 20
-466.25262451171875
 30
0.0
 10
-610.32794189453125
 20
-466.36541748046875
 30
0.0
 10
-610.32794189453125
 20
-466.36541748046875
 30
0.0
 10
-610.281494140625
 20
-466.47821044921875
 30
0.0
 10
-610.22247314453125
 20
-466.62881469726562
 30
0.0
 10
-610.15081787109375
 20
-466.8172607421875
 30
0.0
  0
LINE
  5
50
100
AcDbEntity
  8
layer0
 62
256
370
-1
 48
1.0
  6
BYLAYER
100
AcDbLine
 10
-610.15081787109375
 20
-466.8172607421875
 30
0.0
 11
-608.6260986328125
 21
-470.58316040039062
 31
0.0
  0
SPLINE
  5
51
100
AcDbEntity
  8
layer0
 62
256
370
-1
 48
1.0
  6
BYLAYER
100
AcDbSpline
 70
8
 71
3
 72
32
 73
28
 74
0
 40
0.0
 40
0.0
 40
0.0
 40
0.0
 40
0.1428571492433548
 40
0.1428571492433548
 40
0.1428571492433548
 40
0.1428571492433548
 40
0.2857142984867096
 40
0.2857142984867096
 40
0.2857142984867096
 40
0.2857142984867096
 40
0.4285714477300644
 40
0.4285714477300644
 40
0.4285714477300644
 40
0.4285714477300644
 40
0.5714285969734192
 40
0.5714285969734192
 40
0.5714285969734192
 40
0.5714285969734192
 40
0.714285746216774
 40
0.714285746216774
 40
0.714285746216774
 40
0.714285746216774
 40
0.8571428954601288
 40
0.8571428954601288
 40
0.8571428954601288
 40
0.8571428954601288
 40
1.0
 40
1.0
 40
1.0
 40
1.0
 10
-608.6260986328125
 20
-470.58316040039062
 30
0.0
 10
-608.50665283203125
 20
-470.8697509765625
 30
0.0
 10
-608.44696044921875
 20
-471.07809448242187
 30
0.0
 10
-608.44696044921875
 20
-471.2081298828125
 30
0.0
 10
-608.44696044921875
 20
-471.2081298828125
 30
0.0
 10
-608.44696044921875
 20
-471.34347534179687
 30
0.0
 10
-608.50335693359375
 20
-471.46755981445312
 30
0.0
 10
-608.6162109375
 20
-471.58035278320312
 30
0.0
 10
-608.6162109375
 20
-471.58035278320312
 30
0.0
 10
-608.72900390625
 20
-471.693115234375
 30
0.0
 10
-608.864990234375
 20
-471.74954223632812
 30
0.0
 10
-609.024169921875
 20
-471.74954223632812
 30
0.0
 10
-609.024169921875
 20
-471.74954223632812
 30
0.0
 10
-609.11712646484375
 20
-471.74954223632812
 30
0.0
 10
-609.19671630859375
 20
-471.73294067382812
 30
0.0
 10
-609.2630615234375
 20
-471.69979858398437
 30
0.0
 10
-609.2630615234375
 20
-471.69979858398437
 30
0.0
 10
-609.32940673828125
 20
-471.66659545898437
 30
0.0
 10
-609.38507080078125
 20
-471.62149047851562
 30
0.0
 10
-609.43023681640625
 20
-471.564453125
 30
0.0
 10
-609.43023681640625
 20
-471.564453125
 30
0.0
 10
-609.475341796875
 20
-471.50738525390625
 30
0.0
 10
-609.5238037109375
 20
-471.4197998046875
 30
0.0
 10
-609.5755615234375
 20
-471.30169677734375
 30
0.0
 10
-609.5755615234375
 20
-471.30169677734375
 30
0.0
 10
-609.6273193359375
 20
-471.18359375
 30
0.0
 10
-609.6717529296875
 20
-471.07943725585937
 30
0.0
 10
-609.70892333984375
 20
-470.98919677734375
 30
0.0
  0
LINE
  5
52
100
AcDbEntity
  8
layer0
 62
256
370
-1
 48
1.0
  6
BYLAYER
100
AcDbLine
 10
-609.70892333984375
 20
-470.98919677734375
 30
0.0
 11
-609.987548828125
 21
-470.2567138671875
 31
0.0
  0
LWPOLYLINE
  5
53
100
AcDbEntity
  8
layer1
 62
256
370
-1
 48
1.0
  6
BYLAYER
100
AcDbPolyline
 90
5
 70
0
 10
-625.0
 20
-475.0
 10
-625.0
 20
-425.0
 10
-575.0
 20
-425.0
 10
-575.0
 20
-475.0
 10
-625.0
 20
-475.0
  0
ENDSEC
  0
SECTION
  2
OBJECTS
  0
DICTIONARY
  5
C
100
AcDbDictionary
280
0
281
1
  3
ACAD_GROUP
350
D
  3
ACAD_LAYOUT
350
1A
  3
ACAD_MLINESTYLE
350
17
  3
ACAD_PLOTSETTINGS
350
19
  3
ACAD_PLOTSTYLENAME
350
E
  3
AcDbVariableDictionary
350
54
  0
DICTIONARY
  5
D
100
AcDbDictionary
280
0
281
1
  0
ACDBDICTIONARYWDFLT
  5
E
100
AcDbDictionary
281
1
  3
Normal
350
F
100
AcDbDictionaryWithDefault
340
F
  0
ACDBPLACEHOLDER
  5
F
  0
DICTIONARY
  5
17
100
AcDbDictionary
280
0
281
1
  3
Standard
350
18
  0
MLINESTYLE
  5
18
100
AcDbMlineStyle
  2
STANDARD
 70
0
  3

 62
256
 51
90.0
 52
90.0
 71
2
 49
0.5
 62
256
  6
BYLAYER
 49
-0.5
 62
256
  6
BYLAYER
  0
DICTIONARY
  5
19
100
AcDbDictionary
280
0
281
1
  0
DICTIONARY
  5
1A
100
AcDbDictionary
281
1
  3
Layout1
350
1E
  3
Layout2
350
26
  3
Model
350
22
  0
LAYOUT
  5
1E
100
AcDbPlotSettings
  1

  2
none_device
  4

  6

 40
0.0
 41
0.0
 42
0.0
 43
0.0
 44
0.0
 45
0.0
 46
0.0
 47
0.0
 48
0.0
 49
0.0
140
0.0
141
0.0
142
1.0
143
1.0
 70
688
 72
0
 73
0
 74
5
  7

 75
16
147
1.0
148
0.0
149
0.0
100
AcDbLayout
  1
Layout1
 70
1
 71
1
 10
0.0
 20
0.0
 11
420.0
 21
297.0
 12
0.0
 22
0.0
 32
0.0
 14
100000000000000000000.0
 24
100000000000000000000.0
 34
100000000000000000000.0
 15
-100000000000000000000.0
 25
-100000000000000000000.0
 35
-100000000000000000000.0
146
0.0
 13
0.0
 23
0.0
 33
0.0
 16
1.0
 26
0.0
 36
0.0
 17
0.0
 27
1.0
 37
0.0
 76
0
330
1B
  0
LAYOUT
  5
22
100
AcDbPlotSettings
  1

  2
none_device
  4

  6

 40
0.0
 41
0.0
 42
0.0
 43
0.0
 44
0.0
 45
0.0
 46
0.0
 47
0.0
 48
0.0
 49
0.0
140
0.0
141
0.0
142
1.0
143
1.0
 70
1712
 72
0
 73
0
 74
0
  7

 75
0
147
1.0
148
0.0
149
0.0
100
AcDbLayout
  1
Model
 70
1
 71
0
 10
0.0
 20
0.0
 11
12.0
 21
9.0
 12
0.0
 22
0.0
 32
0.0
 14
0.0
 24
0.0
 34
0.0
 15
0.0
 25
0.0
 35
0.0
146
0.0
 13
0.0
 23
0.0
 33
0.0
 16
1.0
 26
0.0
 36
0.0
 17
0.0
 27
1.0
 37
0.0
 76
0
330
1F
  0
LAYOUT
  5
26
100
AcDbPlotSettings
  1

  2
none_device
  4

  6

 40
0.0
 41
0.0
 42
0.0
 43
0.0
 44
0.0
 45
0.0
 46
0.0
 47
0.0
 48
0.0
 49
0.0
140
0.0
141
0.0
142
1.0
143
1.0
 70
688
 72
0
 73
0
 74
5
  7

 75
16
147
1.0
148
0.0
149
0.0
100
AcDbLayout
  1
Layout2
 70
1
 71
2
 10
0.0
 20
0.0
 11
12.0
 21
9.0
 12
0.0
 22
0.0
 32
0.0
 14
0.0
 24
0.0
 34
0.0
 15
0.0
 25
0.0
 35
0.0
146
0.0
 13
0.0
 23
0.0
 33
0.0
 16
1.0
 26
0.0
 36
0.0
 17
0.0
 27
1.0
 37
0.0
 76
0
330
23
  0
DICTIONARY
  5
54
100
AcDbDictionary
281
1
  3
DIMASSOC
350
56
  3
HIDETEXT
350
55
  0
DICTIONARYVAR
  5
55
100
DictionaryVariables
280
0
  1
2
  0
DICTIONARYVAR
  5
56
100
DictionaryVariables
280
0
  1
1
  0
ENDSEC
  0
EOF
